<svg xmlns="http://www.w3.org/2000/svg" viewBox="0 0 431.8 379.65"><defs><style>.cls-1{fill:#f2f2f2;}.cls-2{fill:#2f2e41;}.cls-3{fill:#ffb6b6;}.cls-4{fill:#2f80ed;}.cls-5{fill:#fff;}.cls-6{opacity:0.2;isolation:isolate;}.cls-7{fill:#3f3d56;}.cls-8{fill:#33db92;}.cls-9{fill:orange;}.cls-10{fill:#fe4c6a;}</style></defs><title>Fichier 5</title><g id="Calque_2" data-name="Calque 2"><g id="Calque_1-2" data-name="Calque 1"><path class="cls-1" d="M327.71,55.14A76.88,76.88,0,0,1,321,13a3.54,3.54,0,0,1,2.21-4l27-7.55a2.68,2.68,0,0,1,3.25,2.46l6.75,42.19a3.54,3.54,0,0,1-2.22,4L331,57.6A2.68,2.68,0,0,1,327.71,55.14Z"/><ellipse class="cls-1" cx="335.95" cy="5.49" rx="5.5" ry="4.59" transform="matrix(0.13, -0.99, 0.99, 0.13, 287.46, 337.97)"/><rect class="cls-1" y="243.59" width="360.99" height="1.17"/><path class="cls-2" d="M146.84,105c-.43-1.49,5.53,12.17,4.11,12.34-6.45.74-20.74,4.07-25.24,5.87l-.6-.08c-.48,0-1-.13-1.41-.21-10.47-2-18.38-10.58-18.6-21,0-.15,0-.3,0-.44a19.23,19.23,0,0,1,.12-2.15,18.86,18.86,0,0,1,.5-2.88h0c-4.17-3.91-2.41-11.16,2.9-14.22a19,19,0,0,1,7.51-2.44,19.28,19.28,0,0,1,2.16-.12H125a32.39,32.39,0,0,1,4.26-.62h0c13.65-1,24.41,7.28,23.4,17.4a.08.08,0,0,0,0,0c-.3.43-.55.84-.78,1.24s-.4.72-.56,1.05c-1.25,2.59,1.95,5.84-.17,6.45-2.82.8,7.42,27.34-3.74,27.34C152.85,134.12,148,109.08,146.84,105Z"/><polygon class="cls-3" points="209.1 361.45 217.9 361.37 221.8 326.64 208.81 326.75 209.1 361.45"/><path class="cls-2" d="M237.29,375.44a3.94,3.94,0,0,1-3.9,4l-17.5.15-3.06-6.21-1.13,6.24-6.6.06,1.67-22.26,2.3-.15,9.37-.65,3-.2,0,6.3,14.06,9.53A3.92,3.92,0,0,1,237.29,375.44Z"/><path class="cls-2" d="M220.26,344c-3.5-.43-12.34-1.18-12.34-1.18s-4.17-8.7-3.49-11.41,2.32-3.27.78-4.69c-3.75-13.85-3.15-36.35-3.15-36.35s-20.17-9.77-40.59-21.07c-20-11.06-40.17-23.59-42-29.91a81.48,81.48,0,0,1-2.42-13.78c-.3-3.06-.49-6-.61-8.74-.27-6.14-.16-10.68-.16-10.68l25.45-.42,16.86-.39h1.76v2.94l4.43,7.53s7.65,8.89,6.75,9.72c-1.09,1-.76,1.9,3.1,2.63a12.39,12.39,0,0,0,3.33.13c6.23-.47,8.84,3.09,9,3.87,1,5.52,11.53,17.5,21.35,27.73h0c9.07,9.44,17.56,17.38,17.56,17.38l.48,10.13,2.26,47.37s-4.24-2.37-.45,2.75S223.76,344.44,220.26,344Z"/><polygon class="cls-3" points="315.74 233.88 319.33 225.84 289.36 207.85 284.06 219.71 315.74 233.88"/><path class="cls-2" d="M340.19,214.06a4,4,0,0,1,2,5.2l-7.15,16-6.92.21,5.21,3.62-2.69,6-19.55-10.78.81-2.15,3.31-8.79,1.08-2.83,5.75,2.57,14.51-8.82A4,4,0,0,1,340.19,214.06Z"/><path class="cls-2" d="M300.32,214.43l-.06.13c-1.64,3-4.33,10-4.49,10.38a0,0,0,0,0,0,0s-8.87-.46-11.14-2.08,1.17,1-4.06-2.48c-2.71-1.78-12-4.56-20.29-6.83-7.73-2.11-14.61-3.77-14.61-3.77s-6.09,5.54-14.9,13.19h0c-8.19,7.1-18.74,16-29,24-21.89,6.44-45,12-50.78,8.88a80.48,80.48,0,0,1-11.51-8l5.95-15.59,15.73-16.48,16.56-6.73,6.48-2.63,9.07-3.68,49.12-20,54.39,18.84s-3.79,3.06,2.37,1.45S302,211.21,300.32,214.43Z"/><path class="cls-4" d="M128.63,123.77h17.62l2.78,6.12,11.8,5.26a10.72,10.72,0,0,1,6.1,7.5c4.25,19.43-1.12,23.46-1.3,29.87-.58,21.73-3.61,26-3.27,31.42.1,1.6,1.08,7.95,4.23,7.35s1.46,1.92,2.2,2.89,4-.27,1.91,2.53,7,10.43,1.39,10.43c-10.57,0-31.71,5.29-39.94,5.29s-14.57,2.44-18.2,2.35c-2.22-.06-1.52-10.37-.64-19.31.2-2,4.09-2,.6-5.72s.62-5.7.62-6.69,2-3.69-.48-8-.19-2.54-.29-3.89c-.83-10.46-2-23.79-2-23.79l-5.19-14.62a15.29,15.29,0,0,1,8.8-19.35l6.09-2.41Z"/><path class="cls-3" d="M252.38,118.38a5.72,5.72,0,0,1-7.74,2.34,7.94,7.94,0,0,1-.78-.5L219,134.27l-5.57-5.91,29.6-16.47a5.71,5.71,0,0,1,9.31,6.49Z"/><path class="cls-4" d="M140.62,151.55l-.38,4.52,49.42-.63,49.19-27.66-7.19-11.06-43.24,18.17-30.73.63A17.49,17.49,0,0,0,140.62,151.55Z"/><circle class="cls-3" cx="134.66" cy="104.49" r="16.05"/><path class="cls-2" d="M152.7,97.34l-.8.4c-.28.13-.56.27-.84.39-5.37,2.44-9.74,2.71-12.4-.79A14.7,14.7,0,0,0,137.44,92,8.66,8.66,0,0,1,136,97.34h-5.35c-5.5,3.65-8.33,4-4.51,16,1.07,3.34,5.3,22.78,3.64,25.67-.49,0-5.65-16.07-6.11-16.15-10.47-2-18.38-10.58-18.6-21,0-.53.05-1.06.11-1.57a27.21,27.21,0,0,1,2.26-3,18,18,0,0,1,1.87-8,18.41,18.41,0,0,1,7-7.6,31.77,31.77,0,0,1,5.58-2.09l.14,0c.59-.16,1.19-.3,1.79-.43a34.12,34.12,0,0,1,3.76-.57h.26a2.91,2.91,0,0,1,1.44.39h0a2.81,2.81,0,0,1,1.38,2.41h5.95c.22,0,.44,0,.66,0a16,16,0,0,1,15.39,15C152.69,96.78,152.7,97.05,152.7,97.34Z"/><circle class="cls-2" cx="112.77" cy="89.7" r="10.57"/><path class="cls-2" d="M125.69,81.48a10.44,10.44,0,0,1-10.57,10.57,10.57,10.57,0,0,1-10.57-10.57c0-5.84,7.07-5.9,10.57-10.57C120.07,64.3,125.42,73.61,125.69,81.48Z"/><path class="cls-5" d="M139.52,246.87c-1.64-24.36,3.16-47.28,16.51-68.28a5.37,5.37,0,0,1,6.47-4l51.56,12.47a5.37,5.37,0,0,1,3.95,6.47L201.5,261.86a5.37,5.37,0,0,1-6.47,3.95l-51.56-12.47A5.36,5.36,0,0,1,139.52,246.87Z"/><path class="cls-6" d="M149.62,252a5.37,5.37,0,0,1-4-6.47c-1.64-24.36,3.16-47.28,16.51-68.27a5.41,5.41,0,0,1,1.33-2.41l-1-.25a5.37,5.37,0,0,0-6.47,4c-13.35,21-18.15,43.92-16.51,68.28a5.36,5.36,0,0,0,3.95,6.47L195,265.81a5.37,5.37,0,0,0,5.14-1.55Z"/><path class="cls-1" d="M196.3,223.3,161.73,215a2.13,2.13,0,0,1,1-4.15l34.57,8.26a2.13,2.13,0,0,1-1,4.15Z"/><path class="cls-1" d="M172.05,205.48l-7.6-1.82a2.13,2.13,0,1,1,1-4.15h0l7.6,1.82a2.13,2.13,0,0,1-1,4.15Z"/><path class="cls-1" d="M192,241.54l-34.58-8.26a2.13,2.13,0,0,1,1-4.15l34.58,8.26a2.14,2.14,0,0,1-1,4.16h0Z"/><path class="cls-1" d="M194.12,232.42l-34.57-8.26a2.13,2.13,0,0,1,1-4.15h0l34.58,8.26a2.13,2.13,0,0,1-1,4.15Z"/><circle class="cls-7" cx="186.82" cy="180.69" r="8.89"/><path class="cls-3" d="M142,252a5.72,5.72,0,0,1-2.24-7.78,4.75,4.75,0,0,1,.5-.76l-13.73-25,6-5.49,16.09,29.81A5.71,5.71,0,0,1,142,252Z"/><path class="cls-4" d="M125.94,141.29l-14.77-1.42a5,5,0,0,0-5.42,4.46,3.87,3.87,0,0,0,0,.48v43.95l27,49.54,11.16-7.05-17.62-43.46Z"/><path class="cls-5" d="M242.54,137.72c3.42-24.17,12.86-45.6,30.26-63.38a5.35,5.35,0,0,1,7.14-2.53l47.88,22.85a5.36,5.36,0,0,1,2.53,7.14l-30.26,63.39a5.37,5.37,0,0,1-7.15,2.53l-47.87-22.85A5.37,5.37,0,0,1,242.54,137.72Z"/><path class="cls-6" d="M251.36,144.87a5.37,5.37,0,0,1-2.53-7.15c3.42-24.17,12.86-45.6,30.25-63.39a5.31,5.31,0,0,1,1.81-2.07l-.95-.45a5.37,5.37,0,0,0-7.15,2.52C255.4,92.12,246,113.55,242.54,137.72a5.37,5.37,0,0,0,2.53,7.15l47.87,22.85a5.35,5.35,0,0,0,5.35-.45Z"/><path class="cls-1" d="M303,126.39l-32.12-15.22a2.13,2.13,0,1,1,1.82-3.85l32.13,15.22a2.13,2.13,0,0,1-1.83,3.85Z"/><path class="cls-1" d="M282.92,104l-7.06-3.35a2.13,2.13,0,1,1,1.81-3.86h0l7.07,3.35a2.13,2.13,0,1,1-1.83,3.85Z"/><path class="cls-1" d="M294.94,143.34l-32.12-15.22a2.13,2.13,0,0,1,1.82-3.86l32.13,15.23a2.13,2.13,0,0,1-1.81,3.86h0Z"/><path class="cls-1" d="M299,134.87l-32.12-15.23a2.13,2.13,0,0,1,1.82-3.85h0L300.78,131a2.14,2.14,0,0,1-1.83,3.86Z"/><circle class="cls-7" cx="302.49" cy="82.74" r="8.89"/><path class="cls-5" d="M379.23,169a124.27,124.27,0,0,1-10.91-68.18c-.46-2.87,1.14-5.75,3.58-6.43l43.67-12.2c2.43-.68,4.78,1.1,5.24,4l10.91,68.17c.46,2.88-1.14,5.76-3.58,6.44L384.48,173C382,173.69,379.69,171.91,379.23,169Z"/><path class="cls-6" d="M388.73,169.08c-2.44.67-4.79-1.1-5.25-4a124.3,124.3,0,0,1-10.91-68.18,6.34,6.34,0,0,1,.19-2.74l-.86.24c-2.44.68-4,3.56-3.58,6.43A124.27,124.27,0,0,0,379.23,169c.46,2.87,2.81,4.65,5.25,4l43.66-12.2a5.17,5.17,0,0,0,3.39-3.69Z"/><path class="cls-1" d="M414.47,122.43l-29.24,8.27a1.72,1.72,0,0,1-2.09-1.57,2.27,2.27,0,0,1,1.42-2.57l29.24-8.27a1.73,1.73,0,0,1,2.09,1.58,2.27,2.27,0,0,1-1.42,2.56Z"/><path class="cls-1" d="M389.82,117.54l-6.44,1.82a1.73,1.73,0,0,1-2.09-1.57,2.26,2.26,0,0,1,1.41-2.57h0l6.44-1.82a1.72,1.72,0,0,1,2.08,1.58A2.27,2.27,0,0,1,389.82,117.54Z"/><path class="cls-1" d="M417.43,140.62l-29.25,8.27a1.72,1.72,0,0,1-2.08-1.58,2.27,2.27,0,0,1,1.41-2.56l29.25-8.27a1.72,1.72,0,0,1,2.09,1.57,2.27,2.27,0,0,1-1.41,2.57Z"/><path class="cls-1" d="M416,131.53l-29.24,8.27a1.73,1.73,0,0,1-2.1-1.57,2.26,2.26,0,0,1,1.42-2.57h0l29.25-8.27a1.73,1.73,0,0,1,2.09,1.58,2.29,2.29,0,0,1-1.42,2.56Z"/><ellipse class="cls-7" cx="392.55" cy="88.82" rx="8.89" ry="7.42" transform="translate(254.16 466.75) rotate(-82.64)"/><path class="cls-8" d="M196.15,195.74l-3.3,14.33-2-.47,2.9-12.54-3.24-.75.41-1.78Z"/><path class="cls-8" d="M208,200.27a8.21,8.21,0,0,1,.34,5.64,9.19,9.19,0,0,1-1.79,3.88,6,6,0,0,1-3,2,7.19,7.19,0,0,1-3.75,0,8.52,8.52,0,0,1-1.92-.67,5.44,5.44,0,0,1-1.45-1l1.15-1.42a5.2,5.2,0,0,0,2.6,1.32,4.6,4.6,0,0,0,3.81-.58,5.93,5.93,0,0,0,2.19-3.73l.11-.51a3.92,3.92,0,0,1-2,1,6.1,6.1,0,0,1-2.54-.08,6,6,0,0,1-2.41-1.12,4.1,4.1,0,0,1-1.38-1.92,4.25,4.25,0,0,1-.1-2.43,4.39,4.39,0,0,1,1.21-2.22,4.59,4.59,0,0,1,2.18-1.17,6.07,6.07,0,0,1,2.71,0A5.62,5.62,0,0,1,208,200.27Zm-3.7,4.38a3,3,0,0,0,1.41-.73,2.62,2.62,0,0,0,.66-2.79,2.81,2.81,0,0,0-.93-1.27,4.29,4.29,0,0,0-1.76-.81,3.49,3.49,0,0,0-2.46.23,2.62,2.62,0,0,0-1.34,1.83,2.58,2.58,0,0,0,.42,2.22,3.63,3.63,0,0,0,2.2,1.29A3.92,3.92,0,0,0,204.29,204.65Z"/><path class="cls-9" d="M309.07,100.26l-6.41,13.23-1.87-.91L306.4,101l-3-1.45.8-1.64Z"/><path class="cls-9" d="M316.06,103.65l-6.41,13.23-1.87-.91,5.61-11.58-3-1.45.79-1.64Z"/><path class="cls-10" d="M413,104.66a3,3,0,0,1,1,1.65,3.21,3.21,0,0,1-.08,2.06,3.88,3.88,0,0,1-1.36,1.69,7.35,7.35,0,0,1-2.46,1.11,7,7,0,0,1-2.67.24,3.71,3.71,0,0,1-2-.8,3.17,3.17,0,0,1-1.1-1.75,3,3,0,0,1,.07-1.93,3.61,3.61,0,0,1,1.29-1.57,3.11,3.11,0,0,1-1.55-.73,2.85,2.85,0,0,1-.85-1.45,3,3,0,0,1,.08-1.9,3.67,3.67,0,0,1,1.24-1.56,7,7,0,0,1,4.62-1.22,3.54,3.54,0,0,1,1.85.74,3,3,0,0,1,1,1.61,2.9,2.9,0,0,1,0,1.68,3.23,3.23,0,0,1-1,1.41A3.55,3.55,0,0,1,413,104.66Zm-7.6-3.49a1.86,1.86,0,0,0,.74,2.87,3.4,3.4,0,0,0,2.1,0,3.35,3.35,0,0,0,1.85-1.05,1.72,1.72,0,0,0,.35-1.62,1.75,1.75,0,0,0-1.12-1.24,3.5,3.5,0,0,0-2.11,0A3.3,3.3,0,0,0,405.37,101.17Zm6.48,7.39a2,2,0,0,0,.4-1.85,1.91,1.91,0,0,0-1.26-1.37,4.1,4.1,0,0,0-2.43,0,4,4,0,0,0-2.11,1.19,1.93,1.93,0,0,0-.4,1.8,2,2,0,0,0,1.25,1.41,3.82,3.82,0,0,0,2.42,0A4,4,0,0,0,411.85,108.56Z"/></g></g></svg>