<svg xmlns="http://www.w3.org/2000/svg" viewBox="0 0 960.19 1080.76"><defs><style>.cls-1{fill:#110133;}.cls-2{opacity:0.1;}.cls-3{fill:#fff;}</style></defs><title>Fichier 3</title><g id="Calque_2" data-name="Calque 2"><g id="Calque_1-2" data-name="Calque 1"><rect class="cls-1" width="960.19" height="1080.76"/><g class="cls-2"><path class="cls-3" d="M481.58,848.74A398.41,398.41,0,1,1,762.85,732.05,397.92,397.92,0,0,1,481.58,848.74Zm0-758.59a361,361,0,1,0,254.9,105.74A360.65,360.65,0,0,0,481.58,90.15Z"/><path class="cls-3" d="M583.82,1039a20.61,20.61,0,0,1-19-16.44q-6.42-19.43-12.81-38.87-7.87-24-15.83-48-13.32-40.11-26.71-80.2L501,830.07l14.15-4.72,8.49,25.45Q537,890.9,550.31,931q8,24,15.84,48,6.39,19.44,12.8,38.85c2.37,7.15,4.81,6.46,6.78,5.89a19.12,19.12,0,0,0,9.35-6.36c19.91-27.79,39.84-56.29,59.12-83.85l15.28-21.83a28.27,28.27,0,0,1,38-12.12q32.58,10.92,65.21,21.67,29.07,9.62,58.1,19.29a10.19,10.19,0,0,0,6,.39,10,10,0,0,0,5.14-3c1-.91,2-1.78,0-7.84Q822.14,870.58,802.4,811q-13.51-40.79-27-81.59c-2.54-7.65-5.17-15.26-7.66-22.52-1.13-3.26-2.23-6.45-3.29-9.54l14.11-4.84c1.06,3.08,2.15,6.26,3.28,9.51,2.52,7.35,5.18,15,7.72,22.69q13.53,40.8,27.05,81.6l39.51,119.15A20.73,20.73,0,0,1,852,949a25,25,0,0,1-25.87,5.75q-29-9.69-58.06-19.27-32.64-10.8-65.28-21.68c-11.47-3.85-14.42-2.94-21.06,6.53L666.5,942.12c-19.3,27.6-39.26,56.13-59.23,84a33.71,33.71,0,0,1-17.35,12,21.76,21.76,0,0,1-6.1.9Z"/><path class="cls-3" d="M375.53,1038.87a24.86,24.86,0,0,1-21-11.49q-11.25-16.05-22.52-32.08c-16.7-23.77-33.95-48.34-50.84-72.6-8.82-12.62-9.71-12.91-25-7.75-29.93,10.11-60.45,20-90,29.63L134.15,955A24.36,24.36,0,0,1,109,948.9a21.19,21.19,0,0,1-3.87-23.53l4.73-14c15.58-46.25,31.69-94.15,47.41-141.22,5.61-16.77,11.17-33.83,16.55-50.44l7.83-24c.32-1,.69-2,1-2.72l.2-.53,14,5.12-.25.66c-.22.58-.5,1.33-.75,2.09q-3.92,12-7.81,24c-5.38,16.58-11,33.71-16.58,50.54C155.69,821.86,139.57,869.72,124,916l-4.72,14c-2,6-1,7,0,8a9.35,9.35,0,0,0,10.29,2.78l32.13-10.46c29.42-9.57,59.94-19.49,89.73-29.56,21.54-7.27,29.42-4.77,42,13.37,16.86,24.22,34.11,48.79,50.79,72.53l22.54,32.1a10.05,10.05,0,0,0,10.21,5c2.31-.25,3.46-1,5.56-7.36q17.73-53.57,35.54-107.09L439.45,845c2.16-6.53,4.32-13.06,6.49-19.65L460.12,830q-3.25,9.88-6.51,19.68-10.68,32.22-21.38,64.42-17.79,53.52-35.54,107.07a21.8,21.8,0,0,1-18.14,17.52c-1,.12-2,.19-3,.21Z"/><path class="cls-3" d="M470.09,458.24V561.46h-38.7V458.24a65.21,65.21,0,0,0-.87-10.62c-.09-.53-.18-1.06-.28-1.59a65.18,65.18,0,0,0-2.76-10q-.27-.75-.57-1.47l-.58-1.47-.64-1.47a63.27,63.27,0,0,0-4.88-8.83c-.28-.42-.57-.87-.87-1.28q-1.32-1.91-2.78-3.72l-1-1.19q-1.76-2.07-3.67-4t-4-3.66l-1.19-1c-1.21-1-2.45-1.9-3.73-2.78l-1.29-.86a64.37,64.37,0,0,0-8.83-4.89l-1.47-.63-1.47-.59-1.47-.56a63.76,63.76,0,0,0-10-2.76l-1.59-.28a64.56,64.56,0,0,0-75.14,63.63V561.49h-38.7V355h38.7v22.64a103.23,103.23,0,0,1,167.7,80.58Z"/><path class="cls-3" d="M702.09,355V561.46H663.37V538.83a103.23,103.23,0,0,1-167.7-80.59V355h38.7V457.21a64.52,64.52,0,0,0,129,0V355Z"/></g><path class="cls-3" d="M617.1,453.8a19.51,19.51,0,0,1,5,14.38v26.75h-4.38V468.54a16.26,16.26,0,0,0-3.91-11.75,14.38,14.38,0,0,0-5-3.16,14.54,14.54,0,0,0-5.88-.87,16.85,16.85,0,0,0-12.71,4.82,18,18,0,0,0-4.65,13v24.37h-4.38V449.18h4.21v9.9a17.35,17.35,0,0,1,7-7.54,21.92,21.92,0,0,1,11.09-2.72,18.41,18.41,0,0,1,13.59,5Z"/><path class="cls-3" d="M639.8,437a3.34,3.34,0,0,1-.79-1.14,3.2,3.2,0,0,1-.26-1.36,3.59,3.59,0,0,1,1-2.55,3.58,3.58,0,0,1,2.54-1.05,3.59,3.59,0,0,1,1.37.26,3.41,3.41,0,0,1,1.16.75,3.51,3.51,0,0,1,.8,1.14,3.33,3.33,0,0,1,.26,1.36,3.6,3.6,0,0,1-3.6,3.59,3.32,3.32,0,0,1-1.36-.25,3.5,3.5,0,0,1-1.17-.75Zm.36,12.14h4.38v45.76h-4.38Z"/><path class="cls-3" d="M699.76,449.16l-20.69,45.76H674.6L654,449.16h4.65l18.23,40.94,18.41-40.94Z"/><path class="cls-3" d="M350.61,491.7a21.53,21.53,0,0,1-8.2-8.28,25.51,25.51,0,0,1,0-23.93,21.55,21.55,0,0,1,8.2-8.29,24.48,24.48,0,0,1,23.41,0,21.46,21.46,0,0,1,8.19,8.29,25.44,25.44,0,0,1,0,23.93A21.44,21.44,0,0,1,374,491.7a24.48,24.48,0,0,1-23.41,0Zm21.13-3.42a17.6,17.6,0,0,0,6.57-6.83,21.93,21.93,0,0,0,0-20,17.63,17.63,0,0,0-6.57-6.84,19.29,19.29,0,0,0-18.85,0,17.63,17.63,0,0,0-6.57,6.84,21.93,21.93,0,0,0,0,20,17.6,17.6,0,0,0,6.57,6.83,19.29,19.29,0,0,0,18.85,0Z"/><path class="cls-3" d="M421.49,491.44a11.13,11.13,0,0,1-4.17,2.41,16.19,16.19,0,0,1-5.21.83,11.6,11.6,0,0,1-12.46-12.44V452.32h-8.41v-3.77h8.41v-10H404v10h14.55v3.77H404v29.46a9.62,9.62,0,0,0,2.15,6.79,8.23,8.23,0,0,0,6.35,2.32,10.14,10.14,0,0,0,7.1-2.53Z"/><path class="cls-3" d="M470.67,472.5H431.31A19.07,19.07,0,0,0,434,482a17.4,17.4,0,0,0,6.87,6.45,20.67,20.67,0,0,0,9.76,2.28,21.09,21.09,0,0,0,8.29-1.62,16.18,16.18,0,0,0,6.35-4.78l2.53,2.89a19.44,19.44,0,0,1-7.49,5.53,26.05,26.05,0,0,1-22-1.06,21.57,21.57,0,0,1-8.37-8.23,23.72,23.72,0,0,1-3-12,25,25,0,0,1,2.85-12,21.07,21.07,0,0,1,7.85-8.29,22.67,22.67,0,0,1,22.4,0,20.92,20.92,0,0,1,7.8,8.2,24.63,24.63,0,0,1,2.85,11.93Zm-30.42-18.27a16.25,16.25,0,0,0-6.18,6,19.69,19.69,0,0,0-2.67,8.81h35.07a18.35,18.35,0,0,0-2.63-8.77,17,17,0,0,0-14.91-8.24,17.44,17.44,0,0,0-8.68,2.15Z"/><path class="cls-3" d="M327.59,463.77v31H316v-31a18.9,18.9,0,0,0-.26-3.19c0-.16-.05-.32-.08-.48a20.36,20.36,0,0,0-.83-3c-.06-.15-.11-.3-.17-.44l-.18-.44c-.07-.15-.12-.29-.19-.43a19.72,19.72,0,0,0-1.47-2.66l-.26-.39c-.26-.38-.54-.76-.84-1.12l-.29-.36c-.35-.41-.71-.81-1.09-1.2a13.63,13.63,0,0,0-1.19-1.08l-.36-.3c-.37-.29-.74-.57-1.12-.83l-.39-.26a18.57,18.57,0,0,0-2.66-1.47l-.43-.19-.44-.18-.44-.16a19.5,19.5,0,0,0-3-.83l-.48-.09a19.4,19.4,0,0,0-20.75,11,19.55,19.55,0,0,0-1.8,8.14v31H265.64v-62h11.61v6.8a31,31,0,0,1,50.34,24.18Z"/><path class="cls-3" d="M562.6,432.79v61.95H551V488a31,31,0,0,1-50.33-24.18v-31h11.62v30.67a19.36,19.36,0,1,0,38.71,0V432.79Z"/></g></g></svg>