<svg xmlns="http://www.w3.org/2000/svg" viewBox="0 0 671.07 483.34"><defs><style>.cls-1{fill:#e6e6e6;}.cls-14,.cls-2{fill:#fff;}.cls-3{font-size:27.17px;fill:#33db92;}.cls-14,.cls-3{font-family:Montserrat-Medium, Montserrat;font-weight:500;}.cls-4,.cls-5,.cls-6{fill:#999;}.cls-14,.cls-5,.cls-6{font-size:13.59px;}.cls-5,.cls-6{font-family:Montserrat-Regular, Montserrat;font-weight:400;}.cls-6{letter-spacing:0em;}.cls-7{fill:#87665c;}.cls-8{fill:#2f2e41;}.cls-9{fill:#3f3d56;}.cls-10{fill:#cacaca;}.cls-11{fill:#2f80ed;}.cls-12{fill:#f2f2f2;}.cls-13{fill:#d1d3d4;}.cls-15{letter-spacing:-0.02em;}.cls-16{letter-spacing:0em;}.cls-17{letter-spacing:-0.02em;}.cls-18,.cls-19{fill:none;}.cls-18,.cls-19,.cls-20{stroke:#110133;stroke-width:2px;}.cls-19{stroke-linejoin:round;}.cls-20{fill:#110133;}</style></defs><title>Fichier 2</title><g id="Calque_2" data-name="Calque 2"><g id="Calque_1-2" data-name="Calque 1"><path class="cls-1" d="M483.18,340.26H134.51c-6.47,0-11.71-4.37-11.72-9.75V94.29c0-5.38,5.25-9.75,11.72-9.75H483.18c6.47,0,11.71,4.37,11.72,9.75V330.51C494.89,335.89,489.65,340.25,483.18,340.26Z"/><path class="cls-2" d="M142.41,91.48c-6.23,0-11.28,4.21-11.29,9.39V323.93c0,5.19,5.06,9.39,11.29,9.39H381.07c58.23-.05,105.43-39.32,105.49-87.77V100.87c0-5.18-5.05-9.39-11.28-9.39Z"/><text class="cls-3" transform="translate(354.78 161.38)">14<tspan class="cls-4" x="28.23" y="0"> </tspan><tspan class="cls-5" x="35.54" y="0">/ </tspan><tspan class="cls-6" x="43.65" y="0">2</tspan><tspan class="cls-5" x="51.32" y="0">0</tspan></text><path class="cls-7" d="M423.1,149.49a6.11,6.11,0,0,0,7.16,4.84,5.55,5.55,0,0,0,1-.29l25.2,29.32,3.2-10.82-25-26.83a6.15,6.15,0,0,0-11.61,3.78Z"/><polygon class="cls-7" points="524.7 474.19 516.35 474.19 512.38 442.01 524.7 442.01 524.7 474.19"/><path class="cls-8" d="M524.47,471.46l-8.9-3.62-.26-.1-4.92,3.72a10.48,10.48,0,0,0-10.47,10.47v.34h26.9V471.46Z"/><polygon class="cls-7" points="584.2 474.19 575.86 474.19 571.89 442.01 584.21 442.01 584.2 474.19"/><path class="cls-8" d="M584,471.46l-8.91-3.62-.25-.1-4.92,3.72a10.48,10.48,0,0,0-10.47,10.47v.34h26.9V471.46Z"/><path class="cls-8" d="M564.52,282S575,292.93,575,301.87s-2.62,21.23,0,23.92,5.88,6,2,9.88-5.88,5.88-3.27,8.5S575,392.56,575,392.56L588.71,454h-17.3l-21.94-61.47-5.88-51-19,49.05,2.1,64L508.57,454l-7.49-68s11.12-64.69,9.16-66.35,0-5,0-5l5.23-24.78Z"/><path class="cls-9" d="M544,204.87s3.56-14-12.83-18S468,177.64,468,177.64l-23.68-25.12-8,11.65,26.55,33,62.89,12.91Z"/><path class="cls-1" d="M440.15,163.31a10.85,10.85,0,0,0,1.7-3.16l3.4-8.34-.88,0a8.82,8.82,0,0,0-10.29,7c-.06.33-.1.66-.13,1a5.66,5.66,0,0,0,.56,3.11,3.39,3.39,0,0,0,2.49,1.83A3.77,3.77,0,0,0,440.15,163.31Z"/><path class="cls-1" d="M512.13,293.23l-2,14.22s3.92,4.22,5.88,3.69,9.16-3.59,9.16-3.59,8.5,4.65,13.08,5.17,28.77-2.63,29.43-4.21,8.25-7.77,8.25-7.77l-3-18Z"/><path class="cls-9" d="M575.84,243.48s-1.66,13.71-.35,15-1.31,9.2-3.92,14.43,2,5.89,2,9.81,2,18.31,2,18.31-20.27,1.31-23.54-2-8.5-.66-15.7,6.54-22.81,1.3-26.08-2,2.54-15.05,4.5-17.33-1.89.36-3.85-6.87,1.89-6.54,5.16-9.81,0-9.16-2.61-15-.66-49.7-.66-60.16,14.39-11.78,14.39-11.78l5.69-7.16,4.19-5.26,8.2-.33h.22l7.93-.32,3.85,4.48,8.5,9.9,9.81,2c7.85,2.62,5.89,19,5.89,19Z"/><circle class="cls-7" cx="544.78" cy="150.25" r="16.81"/><path class="cls-8" d="M564.27,144.59c-4.63-2.83-4-10.25-8.49-12.84a15.84,15.84,0,0,0-14.66-.61c-3.14-1.35-6.9-.27-9.41,2.15a15.73,15.73,0,0,0-4.27,9.6,35.83,35.83,0,0,0,.77,10.78l.75-4.26,13.25-2.9-3.52,3.17a24.08,24.08,0,0,0,17.6-2.76c5.76,2.59,4.72,8.4-.35,16.11C557.91,166.3,569.53,147.82,564.27,144.59Z"/><path class="cls-1" d="M557.18,174.05l-.12.09a8.88,8.88,0,0,1-4.58,1.24,8.09,8.09,0,0,1-5.84-1.83c-.86-.81-4.26.9-6.5,1.85a9.88,9.88,0,0,1-7.35.08l4.19-5.26,6.9-1.53h1.72l7.73.88Z"/><path class="cls-10" d="M670.05,483.08l-234,.26a1,1,0,0,1,0-2h0l234-.26a1,1,0,0,1,1,1A1,1,0,0,1,670.05,483.08Z"/><polygon class="cls-9" points="389.88 116.29 388.15 116.29 388.15 15.6 455.88 15.6 455.88 17.01 389.88 17.01 389.88 116.29"/><path class="cls-11" d="M540.87,0H469.63C460,0,452.16,7.15,452.16,16s7.82,16,17.47,16h71.24c9.65,0,17.48-7.15,17.48-16S550.52,0,540.87,0Z"/><circle class="cls-11" cx="388.02" cy="124.3" r="10.29"/><path class="cls-12" d="M264.07,178.4,309.19,168l12.95-3c1.62-.37.95-2.87-.67-2.49l-45.12,10.44-13,3c-1.62.37-.94,2.87.68,2.49Z"/><path class="cls-12" d="M310.66,151.21l24.16,11.11a7.94,7.94,0,0,1,2.29,1.24c.66.65.18,1.28-.37,1.85a53.57,53.57,0,0,1-5.14,4.24L321.31,178c-1.29,1,.53,2.88,1.81,1.84l9-7.29,4.48-3.64c1.27-1,2.81-2.09,3.32-3.73,1.08-3.46-3.16-4.83-5.51-5.91l-10.52-4.84L312,149c-1.5-.69-2.83,1.53-1.32,2.23Z"/><circle class="cls-13" cx="567.77" cy="299.77" r="5.96"/><path class="cls-1" d="M248.5,207.87H179a1.62,1.62,0,0,1,0-3.24H248.5a1.62,1.62,0,1,1,0,3.24Z"/><path class="cls-1" d="M248.5,198.61H179a1.62,1.62,0,0,1,0-3.24H248.5a1.62,1.62,0,1,1,0,3.24Z"/><path class="cls-1" d="M248.5,217.14H179a1.63,1.63,0,0,1,0-3.25H248.5a1.63,1.63,0,0,1,0,3.25Z"/><path class="cls-1" d="M248.5,226.4H179a1.62,1.62,0,0,1,0-3.24H248.5a1.62,1.62,0,0,1,0,3.24Z"/><path class="cls-1" d="M248.5,235.66H179a1.62,1.62,0,0,1,0-3.24H248.5a1.62,1.62,0,0,1,0,3.24Z"/><path class="cls-1" d="M248.5,244.92H179a1.62,1.62,0,0,1,0-3.24H248.5a1.62,1.62,0,0,1,0,3.24Z"/><polygon class="cls-9" points="210.3 223.68 212.02 223.68 212.02 290.02 87.47 290.02 87.47 288.3 210.3 288.3 210.3 223.68"/><path class="cls-11" d="M14.74,306.43H74.83c8.14,0,14.74-7.48,14.74-16.71S83,273,74.83,273H14.74C6.6,273,0,280.5,0,289.72s6.6,16.71,14.74,16.71Z"/><circle class="cls-11" cx="212.36" cy="218.39" r="10.29"/><path class="cls-12" d="M267.67,244.42c15.1,3.21,11.26,3.84,26.36,7.05l13,2.76c1.63.35,2.07-2.2.44-2.55-15.1-3.21-11.26-3.83-26.36-7l-13-2.77c-1.63-.34-2.07,2.2-.45,2.55Z"/><path class="cls-12" d="M302.46,236.91l17.18,20.29a7.94,7.94,0,0,1,1.55,2.09c.33.87-.38,1.23-1.11,1.52a53.58,53.58,0,0,1-6.45,1.67l-12.87,3.23c-1.61.4-.74,2.83.86,2.43l11.21-2.81,5.6-1.4c1.59-.4,3.43-.7,4.59-2,2.43-2.67-.82-5.71-2.49-7.68L313,245.43l-8.45-10c-1.07-1.26-3.21.19-2.13,1.46Z"/><path class="cls-7" d="M578.16,302.9a6.14,6.14,0,0,0,1.55-9.24l19.2-33.56-11.27.61-16.92,32.52a6.14,6.14,0,0,0,7.44,9.67Z"/><path class="cls-9" d="M556.53,185.26s20.34-6.54,25.57,9.16,22.82,58.2,22.82,58.2L586,291.2l-8.5-9.16,9.08-26.81L560.45,216Z"/><path class="cls-1" d="M586.67,287.26a10.66,10.66,0,0,0-2.3-2.75l-6.49-6.25-.36.81a8.8,8.8,0,0,0,2.72,12.15,7.45,7.45,0,0,0,.87.49,5.77,5.77,0,0,0,3.1.64,3.38,3.38,0,0,0,2.62-1.63A3.75,3.75,0,0,0,586.67,287.26Z"/><polygon class="cls-9" points="354.6 310.44 352.88 310.44 352.88 388.88 411.13 388.88 411.13 386.85 354.6 386.85 354.6 310.44"/><circle class="cls-11" cx="352.54" cy="305.15" r="10.29"/><text class="cls-14" transform="translate(25.09 293.71)">No<tspan class="cls-15" x="19.66" y="0">t</tspan><tspan x="25.04" y="0">es</tspan></text><path class="cls-11" d="M523,387.26c0-9.12-8.51-16.51-19-16.52H426.55c-10.49,0-19,7.4-19,16.52s8.51,16.52,19,16.52H504C514.51,403.77,523,396.38,523,387.26Z"/><text class="cls-14" transform="translate(424.99 391.81)">Classe<tspan class="cls-16" x="43.67" y="0">m</tspan><tspan x="58.07" y="0">ent</tspan></text><text class="cls-14" transform="translate(470.13 20.31)">M<tspan class="cls-17" x="12.98" y="0">oy</tspan><tspan x="28.79" y="0">en</tspan><tspan class="cls-16" x="46.36" y="0">n</tspan><tspan x="55.65" y="0">es</tspan></text><path class="cls-18" d="M346.62,287.77H334.07v-15.3h12.55Zm0,0h12.55m-12.55,0V250.12h12.55v37.65m0,0h12.55V264.24H359.17Z"/><path class="cls-19" d="M226,155.66l-5.37-6.35m5.37,6.35v29.59H198.09V149.31h22.58m5.37,6.35h-5.37v-6.35Z"/><circle class="cls-18" cx="212.07" cy="165.28" r="5.99"/><path class="cls-20" d="M210.51,175.46l-1,.78v-3.88h5.21v3.88l-1-.78-1.56-1.16Z"/><path class="cls-1" d="M431.9,261.7H388.15c-.56,0-1-.73-1-1.62s.46-1.62,1-1.62H431.9c.56,0,1,.72,1,1.62S432.46,261.7,431.9,261.7Z"/><path class="cls-1" d="M431.9,271H388.15c-.56,0-1-.73-1-1.62s.46-1.62,1-1.62H431.9c.56,0,1,.72,1,1.62S432.46,271,431.9,271Z"/><path class="cls-1" d="M431.9,280.22H388.15c-.56,0-1-.73-1-1.62s.46-1.62,1-1.62H431.9c.56,0,1,.72,1,1.62S432.46,280.22,431.9,280.22Z"/><path class="cls-1" d="M431.9,289.48H388.15c-.56,0-1-.73-1-1.63s.46-1.61,1-1.61H431.9c.56,0,1,.73,1,1.62S432.46,289.48,431.9,289.48Z"/></g></g></svg>