<svg width="1600" height="1600" viewBox="0 0 1600 1600" fill="none"
    xmlns="http://www.w3.org/2000/svg">
    <defs>
        <style>.cls-1,.cls-4{fill:none;stroke:currentColor;stroke-miterlimit:10;}.cls-1{stroke-width:16px;}.cls-2{fill:currentColor;}.cls-3{fill:currentColor;}.cls-4{stroke-width:36px;}.cls-5{clip-path:url(#clip-path);}.cls-6{clip-path:url(#clip-path-2);}</style>
        <clipPath id="clip-path">
            <path class="cls-1" d="M1103.3,950.2c3.59,10.48,7.64,22,11.5,33.64q34.88,105.08,69.71,210.16c2,6,3,11.76-2.09,16.45-5.47,5-11.79,6.91-19.35,4.38-43-14.37-86.14-28.48-129.15-42.89-15.11-5.06-21.89-3.15-30.93,9.76-25.9,37-51.67,74-78,110.75a27.76,27.76,0,0,1-14,9.62c-8.17,2.35-13.64-2.06-16.67-11.22-10-30.31-19.94-60.66-30-91q-18.37-55.35-36.86-110.65"/>
        </clipPath>
        <clipPath id="clip-path-2">
            <path class="cls-1" d="M770,1089.2q-3.39,10.35-6.79,20.59-29.79,89.81-59.61,179.59c-2.12,6.42-4.66,12.2-12.41,13s-13.55-2.33-17.92-8.57c-25.61-36.53-51.32-73-76.8-109.6-11.39-16.37-16-17.5-35.07-11.06-42.46,14.33-85.14,28-127.74,41.94-7.12,2.33-13.37.26-18.58-4.67-5-4.78-4-10.59-2-16.49q27.36-81.26,54.6-162.54c8.67-26,17-52,25.53-78,.41-1.25.89-2.48,1.14-3.15"/>
        </clipPath>
    </defs>
    <g id="Logo-3" data-name="Logo">
        <path class="cls-3" d="M787.78,702.34V810.43H747.25V702.34a67.83,67.83,0,0,0-.92-11.12c-.09-.56-.19-1.11-.29-1.67a67.34,67.34,0,0,0-2.89-10.44c-.19-.52-.39-1-.59-1.54h0c-.2-.51-.41-1-.62-1.53s-.43-1-.66-1.5a67.51,67.51,0,0,0-5.12-9.29c-.3-.46-.6-.91-.91-1.35q-1.39-2-2.92-3.9c-.34-.42-.68-.84-1-1.25q-1.83-2.18-3.84-4.18t-4.18-3.84c-.41-.35-.83-.69-1.25-1q-1.89-1.53-3.9-2.92c-.44-.31-.89-.61-1.34-.91a67.62,67.62,0,0,0-9.3-5.12l-1.5-.66-1.53-.62h0c-.51-.2-1-.4-1.54-.58a66.27,66.27,0,0,0-10.44-2.9l-1.67-.29a67.62,67.62,0,0,0-78.68,66.64V810.43H571.6V594.25h40.53V618a108.09,108.09,0,0,1,175.65,84.38Z"/>
        <path class="cls-3" d="M1030.71,594.25V810.43H990.18V786.72a108.09,108.09,0,0,1-175.65-84.38V594.25h40.53v107a67.56,67.56,0,1,0,135.12,0v-107Z"/>
        <circle class="cls-4" cx="799.8" cy="694.53" r="397.2"/>
        <g class="cls-5">
            <rect class="cls-1" x="350.28" y="246.6" width="896.99" height="1056.08"/>
        </g>
        <path class="cls-1" d="M1103.3,950.2c3.59,10.48,7.64,22,11.5,33.64q34.88,105.08,69.71,210.16c2,6,3,11.76-2.09,16.45-5.47,5-11.79,6.91-19.35,4.38-43-14.37-86.14-28.48-129.15-42.89-15.11-5.06-21.89-3.15-30.93,9.76-25.9,37-51.67,74-78,110.75a27.76,27.76,0,0,1-14,9.62c-8.17,2.35-13.64-2.06-16.67-11.22-10-30.31-19.94-60.66-30-91q-18.37-55.35-36.86-110.65"/>
        <g class="cls-6">
            <rect class="cls-1" x="350.28" y="246.6" width="896.99" height="1056.08"/>
        </g>
        <path class="cls-1" d="M770,1089.2q-3.39,10.35-6.79,20.59-29.79,89.81-59.61,179.59c-2.12,6.42-4.66,12.2-12.41,13s-13.55-2.33-17.92-8.57c-25.61-36.53-51.32-73-76.8-109.6-11.39-16.37-16-17.5-35.07-11.06-42.46,14.33-85.14,28-127.74,41.94-7.12,2.33-13.37.26-18.58-4.67-5-4.78-4-10.59-2-16.49q27.36-81.26,54.6-162.54c8.67-26,17-52,25.53-78,.41-1.25.89-2.48,1.14-3.15"/>
    </g>
</svg>
