<svg width="811.8" height="240" viewBox="0 0 811.8 240" fill="none"
    xmlns="http://www.w3.org/2000/svg">
    <path d="M99.6,52.6h6.5V23.8h-6.5V52.6L99.6,52.6z M128.8,40.4c0,5.1-1.9,7.5-5.3,7.5c-3.3,0-5.2-2.5-5.2-7.5V23.8h-6.5
	v16.1c0,9.2,4.2,13.2,11.5,13.2c7.5,0,12-4.2,12-13.2V23.8h-6.5V40.4z M138.8,29.3h7.8v23.4h6.5V29.3h7.9v-5.5h-22.1
	C138.8,23.8,138.8,29.3,138.8,29.3z M222.6,34.9h-10.7V23.8h-6.5v28.9h6.5V40.6h10.7v12.1h6.5V23.8h-6.5
	C222.6,23.8,222.6,34.9,222.6,34.9z M253.5,40.3c0-5-2.2-9.1-9.2-9.1c-3.8,0-6.7,1.1-8.1,1.9l1.2,4.2c1.4-0.9,3.6-1.6,5.8-1.6
	c3.2,0,3.8,1.6,3.8,2.7v0.3c-7.4,0-12.3,2.6-12.3,8c0,3.3,2.5,6.4,6.8,6.4c2.5,0,4.6-0.9,6-2.6h0.1l0.4,2.1h5.9
	c-0.3-1.2-0.3-3.1-0.3-5.1L253.5,40.3L253.5,40.3z M247.2,45c0,0.4,0,0.8-0.1,1.1c-0.4,1.3-1.8,2.4-3.4,2.4c-1.5,0-2.6-0.8-2.6-2.5
	c0-2.5,2.7-3.3,6.1-3.3C247.2,42.7,247.2,45,247.2,45z M274.3,34.2L274.3,34.2c-1.2-1.8-2.9-3-5.8-3c-5.2,0-9.5,4.3-9.5,11.1
	c0,6,3.7,10.2,8.9,10.2c2.4,0,4.4-1,5.6-2.7h0.1v1.3c0,3.9-2.4,5.5-5.4,5.5c-2.5,0-4.7-0.8-6.1-1.6l-1.3,5c1.9,1,4.7,1.6,7.5,1.6
	c3.1,0,6.2-0.6,8.5-2.6c2.4-2.1,3.2-5.4,3.2-9.4V37.9c0-3.1,0.1-4.9,0.2-6.3h-5.6L274.3,34.2L274.3,34.2z M273.5,43.3
	c0,0.6,0,1.2-0.2,1.8c-0.4,1.5-1.8,2.6-3.5,2.6c-2.7,0-4.2-2.4-4.2-5.6c0-3.8,1.9-6,4.3-6c1.8,0,3,1.2,3.5,2.9
	c0.1,0.4,0.1,0.8,0.1,1.2V43.3z M306.4,31.7h-6.5v12.5c0,0.6-0.1,1-0.3,1.4c-0.4,1-1.5,2.3-3.3,2.3c-2.3,0-3.3-1.8-3.3-4.9V31.7
	h-6.5V44c0,6.5,3.1,9.1,7.4,9.1c3.8,0,5.7-2.1,6.5-3.4h0.1l0.3,3h5.6c-0.1-1.8-0.2-4-0.2-6.7L306.4,31.7L306.4,31.7z M322.5,31.2
	c-7.3,0-10.6,5.9-10.6,11.2c0,6.6,4.1,10.7,11.2,10.7c2.8,0,5.4-0.4,7.6-1.3l-0.9-4.4c-1.8,0.6-3.5,0.9-5.8,0.9c-3,0-5.7-1.3-5.9-4
	h13.5c0.1-0.5,0.2-1.5,0.2-2.6C331.8,36.5,329.3,31.2,322.5,31.2L322.5,31.2z M318.1,39.8c0.2-1.7,1.3-4.2,4-4.2
	c3,0,3.7,2.7,3.7,4.2H318.1z M349.6,31.2c-3.5,0-5.6,2-6.5,3.4H343l-0.3-2.9h-5.6c0.1,1.9,0.2,4.1,0.2,6.7v14.3h6.5V40.6
	c0-0.6,0-1.2,0.2-1.6c0.5-1.2,1.5-2.4,3.3-2.4c2.4,0,3.3,1.8,3.3,4.5v11.6h6.5V40.3C357.1,34.1,353.9,31.2,349.6,31.2z M381.2,40.3
	c0-5-2.2-9.1-9.1-9.1c-3.8,0-6.7,1.1-8.1,1.9l1.2,4.2c1.4-0.9,3.6-1.6,5.8-1.6c3.2,0,3.8,1.6,3.8,2.7v0.3c-7.4,0-12.3,2.6-12.3,8
	c0,3.3,2.5,6.4,6.8,6.4c2.5,0,4.6-0.9,6-2.6h0.1l0.4,2.1h5.9c-0.3-1.2-0.3-3.1-0.3-5.1L381.2,40.3L381.2,40.3z M374.9,45
	c0,0.4,0,0.8-0.1,1.1c-0.4,1.3-1.8,2.4-3.4,2.4c-1.5,0-2.6-0.8-2.6-2.5c0-2.5,2.7-3.3,6.1-3.3L374.9,45L374.9,45z M407.6,31.7h-6.5
	v12.5c0,0.6-0.1,1-0.3,1.4c-0.4,1-1.5,2.3-3.3,2.3c-2.3,0-3.3-1.8-3.3-4.9V31.7h-6.5V44c0,6.5,3.1,9.1,7.4,9.1
	c3.8,0,5.7-2.1,6.5-3.4h0.1l0.3,3h5.6c-0.1-1.8-0.2-4-0.2-6.7L407.6,31.7L407.6,31.7z M75.3,102.2h-4v30.7h4V102.2L75.3,102.2z
	 M84.1,132.9h4v-13.2c0-0.7,0.1-1.4,0.3-1.9c0.7-2.2,2.8-4.1,5.4-4.1c3.8,0,5.1,3,5.1,6.5v12.7h4v-13.1c0-7.6-4.7-9.4-7.8-9.4
	c-3.6,0-6.2,2-7.3,4.1h-0.1l-0.2-3.6h-3.5c0.1,1.8,0.2,3.6,0.2,6L84.1,132.9L84.1,132.9z M115.6,130.4c-2,0-4.1-0.8-5.3-1.5l-1,3
	c1.5,0.9,3.8,1.5,6.2,1.5c5.1,0,8.2-2.7,8.2-6.6c0-3.3-2-5.2-5.8-6.6c-2.9-1.1-4.1-2-4.1-3.8c0-1.6,1.3-3,3.6-3c2,0,3.6,0.8,4.5,1.3
	l1-2.9c-1.2-0.8-3.1-1.4-5.4-1.4c-4.7,0-7.6,2.9-7.6,6.5c0,2.6,1.9,4.8,5.9,6.2c2.9,1.1,4,2.1,4,4
	C119.9,129,118.5,130.4,115.6,130.4L115.6,130.4z M131.4,125.9c0,2.6,0.5,4.5,1.5,5.8c1,1,2.5,1.7,4.3,1.7c1.5,0,2.8-0.3,3.5-0.5
	l-0.2-3c-0.6,0.2-1.2,0.3-2.3,0.3c-2.2,0-3-1.5-3-4.3v-11.9h5.7v-3h-5.7v-5.3l-3.9,1.2v4.1H128v3h3.4L131.4,125.9L131.4,125.9z
	 M147.1,132.9h4v-22h-4V132.9z M149,107.2c1.6,0,2.5-1.1,2.5-2.5c0-1.4-1-2.5-2.5-2.5c-1.5,0-2.5,1.1-2.5,2.5
	C146.6,106.1,147.5,107.2,149,107.2L149,107.2z M160.2,125.9c0,2.6,0.5,4.5,1.5,5.8c1,1,2.5,1.7,4.3,1.7c1.5,0,2.8-0.3,3.5-0.5
	l-0.2-3c-0.6,0.2-1.2,0.3-2.3,0.3c-2.2,0-3-1.5-3-4.3v-11.9h5.7v-3h-5.7v-5.3l-3.9,1.2v4.1h-3.4v3h3.4L160.2,125.9L160.2,125.9z
	 M183.4,133.4c3.9,0,6.3-2.3,7.3-4.1h0.1l0.2,3.6h3.5c-0.1-1.7-0.2-3.7-0.2-6.1v-16h-4v13.5c0,0.8-0.1,1.5-0.4,2
	c-0.7,1.8-2.6,3.7-5.3,3.7c-3.6,0-4.9-2.9-4.9-7.1v-12.1h-4v12.9C175.8,131.5,179.9,133.4,183.4,133.4L183.4,133.4z M203.5,125.9
	c0,2.6,0.5,4.5,1.5,5.8c1,1,2.5,1.7,4.3,1.7c1.5,0,2.8-0.3,3.5-0.5l-0.2-3c-0.6,0.2-1.2,0.3-2.3,0.3c-2.2,0-3-1.5-3-4.3v-11.9h5.7
	v-3h-5.7v-5.3l-3.9,1.2v4.1h-3.4v3h3.4L203.5,125.9L203.5,125.9z M235.2,133.4c3.9,0,6.3-2.3,7.3-4.1h0.1l0.2,3.6h3.5
	c-0.1-1.7-0.2-3.7-0.2-6.1v-16h-4v13.5c0,0.8-0.1,1.5-0.4,2c-0.7,1.8-2.6,3.7-5.3,3.7c-3.6,0-4.9-2.9-4.9-7.1v-12.1h-4v12.9
	C227.6,131.5,231.7,133.4,235.2,133.4L235.2,133.4z M254.3,132.9h4v-13.2c0-0.7,0.1-1.4,0.3-1.9c0.7-2.2,2.8-4.1,5.4-4.1
	c3.8,0,5.1,3,5.1,6.5v12.7h4v-13.1c0-7.6-4.7-9.4-7.8-9.4c-3.6,0-6.2,2-7.3,4.1h-0.1l-0.2-3.6h-3.5c0.1,1.8,0.2,3.6,0.2,6
	L254.3,132.9L254.3,132.9z M283,107.2c1.6,0,2.5-1.1,2.5-2.5c0-1.4-1-2.5-2.5-2.5c-1.5,0-2.5,1.1-2.5,2.5
	C280.6,106.1,281.6,107.2,283,107.2L283,107.2z M281.1,132.9h4v-22h-4V132.9z M302.8,132.9l8.6-22h-4.2l-4.3,12.3
	c-0.7,2-1.4,3.9-1.9,5.7H301c-0.5-1.8-1-3.6-1.8-5.7l-4.3-12.3h-4.3l8.4,22H302.8L302.8,132.9z M325.6,133.4c3.5,0,6-0.8,7.4-1.4
	l-0.7-2.9c-1.5,0.6-3.2,1.1-6.1,1.1c-4,0-7.5-2.2-7.5-7.6H334c0.1-0.5,0.1-1,0.1-1.9c0-4.1-1.9-10.3-9.1-10.3
	c-6.4,0-10.3,5.2-10.3,11.8C314.8,128.9,318.8,133.4,325.6,133.4L325.6,133.4z M324.8,113.3c4.5,0,5.6,4,5.5,6.5h-11.7
	C318.9,117,320.7,113.3,324.8,113.3z M340.7,132.9h4v-11.7c0-0.6,0-1.3,0.1-1.9c0.5-3,2.5-5.1,5.4-5.1c0.5,0,1,0,1.4,0.1v-3.8
	c-0.4,0-0.7-0.1-1.1-0.1c-2.7,0-5.1,1.9-6.1,4.8h-0.1l-0.2-4.4h-3.5c0.1,2,0.2,4.3,0.2,6.9L340.7,132.9L340.7,132.9z M361.9,130.4
	c-2,0-4.1-0.8-5.3-1.5l-1,3c1.5,0.9,3.8,1.5,6.2,1.5c5.1,0,8.2-2.7,8.2-6.6c0-3.3-2-5.2-5.8-6.6c-2.9-1.1-4.1-2-4.1-3.8
	c0-1.6,1.3-3,3.6-3c2,0,3.6,0.8,4.5,1.3l1-2.9c-1.2-0.8-3.1-1.4-5.4-1.4c-4.7,0-7.6,2.9-7.6,6.5c0,2.6,1.9,4.8,5.9,6.2
	c2.9,1.1,4,2.1,4,4C366.1,129,364.8,130.4,361.9,130.4L361.9,130.4z M378.6,107.2c1.6,0,2.5-1.1,2.5-2.5c0-1.4-1-2.5-2.5-2.5
	c-1.5,0-2.5,1.1-2.5,2.5C376.2,106.1,377.2,107.2,378.6,107.2z M376.7,132.9h4v-22h-4V132.9z M389.9,125.9c0,2.6,0.5,4.5,1.5,5.8
	c1,1,2.5,1.7,4.3,1.7c1.5,0,2.8-0.3,3.5-0.5l-0.2-3c-0.6,0.2-1.2,0.3-2.3,0.3c-2.2,0-3-1.5-3-4.3v-11.9h5.7v-3h-5.7v-5.3l-3.9,1.2
	v4.1h-3.4v3h3.4L389.9,125.9L389.9,125.9z M403.8,127.1c0,3.2,2.3,6.3,6.7,6.3c3.1,0,5.5-1.5,6.7-3.3h0.1l0.3,2.8h3.6
	c-0.2-1.5-0.3-3.4-0.3-5.3v-8.2c0-4.4-1.6-9-8.4-9c-2.8,0-5.5,0.8-7.3,1.9l0.9,2.7c1.5-1,3.7-1.6,5.8-1.6c4.5,0,5,3.3,5,5v0.5
	C408.6,118.9,403.8,121.8,403.8,127.1L403.8,127.1z M417.2,121.7v3.8c0,0.4,0,0.8-0.2,1.3c-0.6,1.9-2.5,3.7-5.4,3.7
	c-2,0-3.7-1.2-3.7-3.8C407.8,122.4,412.8,121.6,417.2,121.7z M429.1,132.9h4v-22h-4L429.1,132.9L429.1,132.9z M431,107.2
	c1.6,0,2.5-1.1,2.5-2.5c0-1.4-1-2.5-2.5-2.5c-1.5,0-2.5,1.1-2.5,2.5C428.6,106.1,429.5,107.2,431,107.2L431,107.2z M441.3,132.9h4
	v-11.7c0-0.6,0-1.3,0.1-1.9c0.5-3,2.5-5.1,5.4-5.1c0.5,0,1,0,1.4,0.1v-3.8c-0.4,0-0.7-0.1-1.1-0.1c-2.7,0-5.1,1.9-6.1,4.8h-0.1
	l-0.2-4.4h-3.5c0.1,2,0.2,4.3,0.2,6.9V132.9z M466.5,133.4c3.5,0,6-0.8,7.4-1.4l-0.7-2.9c-1.5,0.6-3.2,1.1-6.1,1.1
	c-4,0-7.5-2.2-7.5-7.6H475c0.1-0.5,0.1-1,0.1-1.9c0-4.1-1.9-10.3-9.1-10.3c-6.4,0-10.3,5.2-10.3,11.8
	C455.7,128.9,459.7,133.4,466.5,133.4L466.5,133.4z M465.7,113.3c4.5,0,5.6,4,5.5,6.5h-11.7C459.9,117,461.6,113.3,465.7,113.3
	L465.7,113.3z M167.2,215.3c6.6,0,11.6-3.8,11.6-13.2v-17.9h-4v18.2c0,6.7-3,9.7-7.5,9.7c-4.1,0-7.1-2.9-7.1-9.7v-18.2h-4v18.1
	C156.2,211.7,160.9,215.3,167.2,215.3L167.2,215.3z M186.6,214.8h4v-13.2c0-0.7,0.1-1.4,0.3-1.9c0.7-2.2,2.8-4.1,5.4-4.1
	c3.8,0,5.1,3,5.1,6.5v12.7h4v-13.1c0-7.6-4.7-9.4-7.8-9.4c-3.6,0-6.2,2-7.3,4.1h-0.1l-0.2-3.6h-3.5c0.1,1.8,0.2,3.6,0.2,6V214.8z
	 M214.9,189c1.6,0,2.5-1.1,2.5-2.5c0-1.4-1-2.5-2.5-2.5c-1.5,0-2.5,1.1-2.5,2.5S213.4,189,214.9,189L214.9,189z M213,214.8h4v-22h-4
	V214.8z M234.2,214.8l8.6-22h-4.2l-4.3,12.3c-0.7,2-1.4,3.9-1.9,5.7h-0.1c-0.5-1.8-1-3.6-1.8-5.7l-4.3-12.3H222l8.4,22H234.2
	L234.2,214.8z M256.5,215.3c3.5,0,6-0.8,7.4-1.4l-0.7-2.9c-1.5,0.6-3.2,1.1-6.1,1.1c-4,0-7.5-2.2-7.5-7.6h15.5
	c0.1-0.5,0.1-1,0.1-1.9c0-4-1.9-10.3-9.1-10.3c-6.4,0-10.3,5.2-10.3,11.8C245.7,210.8,249.7,215.3,256.5,215.3L256.5,215.3z
	 M255.7,195.2c4.5,0,5.6,4,5.5,6.5h-11.7C249.8,198.9,251.6,195.2,255.7,195.2L255.7,195.2z M271.1,214.8h4V203c0-0.6,0-1.3,0.1-1.9
	c0.5-3,2.5-5.1,5.4-5.1c0.5,0,1,0,1.4,0.1v-3.8c-0.4,0-0.7-0.1-1.1-0.1c-2.7,0-5.1,1.9-6.1,4.8h-0.1l-0.2-4.4H271
	c0.1,2,0.2,4.3,0.2,6.9L271.1,214.8L271.1,214.8z M291.9,212.3c-2,0-4.1-0.8-5.3-1.5l-1,3c1.5,0.9,3.8,1.5,6.2,1.5
	c5.1,0,8.2-2.7,8.2-6.6c0-3.3-2-5.2-5.8-6.6c-2.9-1.1-4.1-2-4.1-3.8c0-1.6,1.3-3,3.6-3c2,0,3.6,0.8,4.5,1.3l1-2.9
	c-1.2-0.8-3.1-1.4-5.4-1.4c-4.7,0-7.6,2.9-7.6,6.5c0,2.6,1.9,4.8,5.9,6.2c2.9,1.1,4,2.1,4,4C296.1,210.9,294.8,212.3,291.9,212.3
	L291.9,212.3z M308.2,189c1.6,0,2.5-1.1,2.5-2.5c0-1.4-1-2.5-2.5-2.5c-1.5,0-2.5,1.1-2.5,2.5S306.7,189,308.2,189L308.2,189z
	 M306.3,214.8h4v-22h-4V214.8z M318.9,207.8c0,2.6,0.5,4.5,1.5,5.8c1,1,2.5,1.7,4.3,1.7c1.5,0,2.8-0.3,3.5-0.5l-0.2-3
	c-0.6,0.2-1.2,0.3-2.3,0.3c-2.2,0-3-1.5-3-4.3v-11.9h5.7v-3h-5.7v-5.3l-3.9,1.2v4.1h-3.4v3h3.4L318.9,207.8L318.9,207.8z
	 M343.2,215.3c3.5,0,6-0.8,7.4-1.4l-0.7-2.9c-1.5,0.6-3.2,1.1-6.1,1.1c-4,0-7.5-2.2-7.5-7.6h15.5c0.1-0.5,0.1-1,0.1-1.9
	c0-4-1.9-10.3-9.1-10.3c-6.4,0-10.3,5.2-10.3,11.8C332.3,210.8,336.4,215.3,343.2,215.3L343.2,215.3z M342.3,195.2
	c4.5,0,5.6,4,5.5,6.5h-11.7C336.5,198.9,338.3,195.2,342.3,195.2z M348.8,183.3h-4.4l-4,6.5h2.8L348.8,183.3L348.8,183.3z
	 M374.9,215.3c3.6,0,6.2-1.9,7.4-4.3h0.1l0.2,3.8h3.5c-0.1-1.5-0.2-3.7-0.2-5.7v-26.6h-4v13.1h-0.1c-1-1.7-3.2-3.3-6.6-3.3
	c-5.3,0-9.9,4.5-9.9,11.8C365.4,210.8,369.6,215.3,374.9,215.3L374.9,215.3z M376,195.4c3,0,5.2,2.1,5.8,4.6
	c0.1,0.5,0.2,1.2,0.2,1.7v3.8c0,0.6,0,1.2-0.2,1.7c-0.7,3-3.2,4.8-5.9,4.8c-4.3,0-6.5-3.7-6.5-8.1
	C369.5,199.1,371.9,195.4,376,195.4z M403,215.3c3.5,0,6-0.8,7.4-1.4l-0.7-2.9c-1.5,0.6-3.2,1.1-6.1,1.1c-4,0-7.5-2.2-7.5-7.6h15.5
	c0.1-0.5,0.1-1,0.1-1.9c0-4-1.9-10.3-9.1-10.3c-6.4,0-10.3,5.2-10.3,11.8C392.2,210.8,396.2,215.3,403,215.3L403,215.3z
	 M402.2,195.2c4.5,0,5.6,4,5.5,6.5H396C396.4,198.9,398.1,195.2,402.2,195.2L402.2,195.2z M432.8,212c-2.7,0-5.3-0.9-7-2l-1,3.3
	c1.6,1.1,4.9,2,7.8,2c7.2,0,10.7-4.1,10.7-8.9c0-4.5-2.6-7-7.8-9c-4.2-1.6-6.1-3-6.1-5.9c0-2.1,1.6-4.6,5.8-4.6
	c2.8,0,4.8,0.9,5.8,1.5l1.1-3.2c-1.3-0.8-3.6-1.5-6.7-1.5c-6,0-9.9,3.5-9.9,8.3c0,4.3,3.1,6.9,8.1,8.7c4.1,1.6,5.8,3.2,5.8,6.1
	C439.2,209.8,436.9,212,432.8,212L432.8,212z M450.4,207.8c0,2.6,0.5,4.5,1.5,5.8c1,1,2.5,1.7,4.3,1.7c1.5,0,2.8-0.3,3.5-0.5l-0.2-3
	c-0.6,0.2-1.2,0.3-2.3,0.3c-2.2,0-3-1.5-3-4.3v-11.9h5.7v-3h-5.7v-5.3l-3.9,1.2v4.1H447v3h3.4V207.8L450.4,207.8z M465.7,214.8h4
	V203c0-0.6,0-1.3,0.1-1.9c0.5-3,2.5-5.1,5.4-5.1c0.5,0,1,0,1.4,0.1v-3.8c-0.4,0-0.7-0.1-1.1-0.1c-2.7,0-5.1,1.9-6.1,4.8h-0.1
	l-0.2-4.4h-3.5c0.1,2,0.2,4.3,0.2,6.9L465.7,214.8L465.7,214.8z M479.7,209c0,3.2,2.3,6.3,6.7,6.3c3.1,0,5.5-1.5,6.7-3.3h0.1
	l0.3,2.8h3.6c-0.2-1.5-0.3-3.4-0.3-5.3v-8.2c0-4.4-1.6-9-8.4-9c-2.8,0-5.5,0.8-7.3,1.9l0.9,2.7c1.5-1,3.7-1.6,5.8-1.6
	c4.5,0,5,3.3,5,5v0.5C484.5,200.7,479.7,203.6,479.7,209z M493.1,203.5v3.8c0,0.4,0,0.8-0.2,1.3c-0.6,1.9-2.5,3.7-5.4,3.7
	c-2,0-3.7-1.2-3.7-3.8C483.7,204.2,488.7,203.5,493.1,203.5z M509.3,212.3c-2,0-4.1-0.8-5.3-1.5l-1,3c1.5,0.9,3.8,1.5,6.2,1.5
	c5.1,0,8.2-2.7,8.2-6.6c0-3.3-2-5.2-5.8-6.6c-2.9-1.1-4.1-2-4.1-3.8c0-1.6,1.3-3,3.6-3c2,0,3.6,0.8,4.5,1.3l1-2.9
	c-1.2-0.8-3.1-1.4-5.4-1.4c-4.7,0-7.6,2.9-7.6,6.5c0,2.6,1.9,4.8,5.9,6.2c2.9,1.1,4,2.1,4,4C513.5,210.9,512.1,212.3,509.3,212.3
	L509.3,212.3z M527.1,211.2L527.1,211.2c1.8,2.9,4.3,4.1,7.5,4.1c4.9,0,9.9-3.9,9.9-11.8c0-6.6-3.8-11.2-9.3-11.2
	c-3.5,0-6.1,1.5-7.5,4h-0.1v-13.8h-4v26.6c0,2-0.1,4.2-0.2,5.7h3.4L527.1,211.2L527.1,211.2z M527.6,202c0-0.6,0.1-1.2,0.2-1.7
	c0.8-3,3.4-4.9,6-4.9c4.3,0,6.6,3.8,6.6,8.2c0,5.1-2.5,8.5-6.7,8.5c-2.9,0-5.3-1.9-6-4.7c-0.1-0.5-0.2-1-0.2-1.5L527.6,202
	L527.6,202z M559.6,215.3c5.3,0,11-3.5,11-11.7c0-6.7-4.3-11.3-10.6-11.3c-6,0-10.9,4.3-10.9,11.6
	C549,210.9,553.7,215.3,559.6,215.3L559.6,215.3z M559.8,195.3c4.7,0,6.6,4.7,6.6,8.4c0,5-2.9,8.6-6.7,8.6c-3.9,0-6.6-3.6-6.6-8.5
	C553.1,199.7,555.2,195.3,559.8,195.3z M584.1,215.3c3.9,0,6.3-2.3,7.3-4.1h0.1l0.2,3.6h3.5c-0.1-1.7-0.2-3.7-0.2-6.1v-16h-4v13.5
	c0,0.8-0.1,1.5-0.4,2c-0.7,1.8-2.6,3.7-5.3,3.7c-3.6,0-4.9-2.9-4.9-7.1v-12.1h-4v12.9C576.6,213.3,580.7,215.3,584.1,215.3
	L584.1,215.3z M602.9,214.8h4V203c0-0.6,0-1.3,0.1-1.9c0.5-3,2.5-5.1,5.4-5.1c0.5,0,1,0,1.4,0.1v-3.8c-0.4,0-0.7-0.1-1.1-0.1
	c-2.7,0-5.1,1.9-6.1,4.8h-0.1l-0.2-4.4h-3.5c0.1,2,0.2,4.3,0.2,6.9V214.8L602.9,214.8z M626.3,214.7c3.4,0,5.8-1.6,7-3.7h0.1v2.4
	c0,5.6-3,7.7-7.1,7.7c-2.7,0-5-0.8-6.5-1.8l-1,3.1c1.8,1.2,4.7,1.8,7.3,1.8c2.8,0,5.9-0.7,8-2.6c2.1-2,3.1-5,3.1-10.1v-12.8
	c0-2.6,0-4.5,0.2-6h-3.5l-0.1,3.3h-0.1c-1-1.8-3-3.8-6.9-3.8c-5.1,0-10,4.2-10,11.6C616.9,210.1,620.8,214.7,626.3,214.7z
	 M627.5,195.4c3,0,4.9,1.9,5.6,4.3c0.2,0.5,0.2,1.1,0.2,1.8v4c0,0.7-0.1,1.5-0.3,2.1c-0.8,2.5-3,4.1-5.5,4.1c-4.3,0-6.5-3.6-6.5-7.9
	C620.9,198.6,623.7,195.4,627.5,195.4L627.5,195.4z M501.1,133.4c3.6,0,6.2-1.9,7.4-4.3h0.1l0.2,3.8h3.5c-0.1-1.5-0.2-3.7-0.2-5.7
	v-26.6h-4v13.1h-0.1c-1-1.7-3.2-3.3-6.6-3.3c-5.3,0-9.9,4.5-9.9,11.8C491.6,128.9,495.8,133.4,501.1,133.4z M502.3,113.6
	c3,0,5.2,2.1,5.8,4.6c0.1,0.5,0.2,1.2,0.2,1.7v3.8c0,0.6,0,1.2-0.2,1.7c-0.7,3-3.2,4.8-5.9,4.8c-4.3,0-6.5-3.7-6.5-8.1
	C495.7,117.2,498.1,113.6,502.3,113.6L502.3,113.6z M529.7,133.4c3.5,0,6-0.8,7.4-1.4l-0.7-2.9c-1.5,0.6-3.2,1.1-6.1,1.1
	c-4,0-7.5-2.2-7.5-7.6h15.5c0.1-0.5,0.1-1,0.1-1.9c0-4.1-1.9-10.3-9.1-10.3c-6.4,0-10.3,5.2-10.3,11.8
	C518.8,128.9,522.9,133.4,529.7,133.4L529.7,133.4z M528.8,113.3c4.5,0,5.6,4,5.5,6.5h-11.7C523,117,524.8,113.3,528.8,113.3
	L528.8,113.3z M552.7,125.9c0,2.6,0.5,4.5,1.5,5.8c1,1,2.5,1.7,4.3,1.7c1.5,0,2.8-0.3,3.5-0.5l-0.2-3c-0.6,0.2-1.2,0.3-2.3,0.3
	c-2.2,0-3-1.5-3-4.3v-11.9h5.7v-3h-5.7v-5.3l-3.9,1.2v4.1h-3.4v3h3.4L552.7,125.9L552.7,125.9z M576.9,133.4c3.5,0,6-0.8,7.4-1.4
	l-0.7-2.9c-1.5,0.6-3.2,1.1-6.1,1.1c-4,0-7.5-2.2-7.5-7.6h15.5c0.1-0.5,0.1-1,0.1-1.9c0-4.1-1.9-10.3-9.1-10.3
	c-6.4,0-10.3,5.2-10.3,11.8C566.1,128.9,570.1,133.4,576.9,133.4L576.9,133.4z M576.1,113.3c4.5,0,5.6,4,5.5,6.5H570
	C570.3,117,572,113.3,576.1,113.3z M600.9,133.4c3,0,5.3-0.8,6.3-1.3l-0.7-3c-1.1,0.5-2.6,1-4.9,1c-4.4,0-7.6-3.1-7.6-8.2
	c0-4.6,2.7-8.3,7.8-8.3c2.2,0,3.7,0.5,4.6,1l0.9-3c-1.1-0.6-3.2-1.2-5.5-1.2c-7.2,0-11.8,5-11.8,11.7
	C590,128.9,594.3,133.4,600.9,133.4L600.9,133.4z M617.1,119.6c0-0.7,0-1.3,0.3-1.9c0.8-2.1,2.8-4,5.4-4c3.8,0,5.1,3,5.1,6.5v12.6h4
	v-13.1c0-7.6-4.7-9.4-7.7-9.4c-1.4,0-2.8,0.4-4.1,1.1c-1.2,0.7-2.2,1.7-2.9,2.9h-0.1v-13.8h-4v32.3h4L617.1,119.6L617.1,119.6z
	 M639.4,132.9h4v-13.2c0-0.7,0.1-1.4,0.3-1.9c0.7-2.2,2.8-4.1,5.4-4.1c3.8,0,5.1,3,5.1,6.5v12.7h4v-13.1c0-7.6-4.7-9.4-7.8-9.4
	c-3.6,0-6.2,2-7.3,4.1H643l-0.2-3.6h-3.5c0.1,1.8,0.2,3.6,0.2,6V132.9z M674.7,133.4c5.3,0,11-3.6,11-11.7c0-6.7-4.3-11.3-10.6-11.3
	c-6,0-10.9,4.3-10.9,11.6C664.2,129,668.8,133.4,674.7,133.4L674.7,133.4z M675,113.4c4.7,0,6.6,4.7,6.6,8.4c0,5-2.9,8.6-6.7,8.6
	c-3.9,0-6.6-3.6-6.6-8.5C668.3,117.8,670.3,113.4,675,113.4z M695.8,100.6h-4v32.3h4C695.8,132.9,695.8,100.6,695.8,100.6z
	 M712.7,133.4c5.3,0,11-3.5,11-11.7c0-6.7-4.3-11.3-10.6-11.3c-6,0-10.9,4.3-10.9,11.6C702.1,129,706.7,133.4,712.7,133.4
	L712.7,133.4z M712.9,113.4c4.7,0,6.6,4.7,6.6,8.4c0,5-2.9,8.6-6.7,8.6c-3.9,0-6.6-3.6-6.6-8.5C706.2,117.8,708.2,113.4,712.9,113.4
	z M737.6,132.8c3.4,0,5.8-1.6,7-3.7h0.1v2.4c0,5.6-3,7.7-7.1,7.7c-2.7,0-5-0.8-6.5-1.8l-1,3.1c1.8,1.2,4.7,1.8,7.3,1.8
	c2.8,0,5.9-0.7,8-2.6c2.1-2,3.1-5,3.1-10.1v-12.8c0-2.6,0-4.5,0.2-6h-3.5l-0.1,3.3H745c-1-1.8-3-3.8-6.9-3.8c-5.1,0-10,4.2-10,11.6
	C728.2,128.2,732.1,132.8,737.6,132.8L737.6,132.8z M738.8,113.5c3,0,4.9,1.9,5.6,4.3c0.2,0.5,0.2,1.1,0.2,1.8v4
	c0,0.7-0.1,1.5-0.3,2.1c-0.8,2.5-3,4.1-5.5,4.1c-4.3,0-6.5-3.6-6.5-7.9C732.2,116.8,735,113.5,738.8,113.5L738.8,113.5z M756,132.9
	h4v-22h-4V132.9z M757.9,107.2c1.6,0,2.5-1.1,2.5-2.5c0-1.4-1-2.5-2.5-2.5c-1.5,0-2.5,1.1-2.5,2.5
	C755.5,106.1,756.5,107.2,757.9,107.2L757.9,107.2z M777,133.4c3.5,0,6-0.8,7.4-1.4l-0.7-2.9c-1.5,0.6-3.2,1.1-6.1,1.1
	c-4,0-7.5-2.2-7.5-7.6h15.5c0.1-0.5,0.1-1,0.1-1.9c0-4.1-1.9-10.3-9.1-10.3c-6.4,0-10.3,5.2-10.3,11.8
	C766.2,128.9,770.3,133.4,777,133.4L777,133.4z M776.2,113.3c4.5,0,5.6,4,5.5,6.5h-11.7C770.4,117,772.1,113.3,776.2,113.3z
	 M482.5,78.2V0h-407v78.2H0v83.5h121.3V240h547.4v-78.3h143.2V78.2L482.5,78.2L482.5,78.2z M468.9,2.2h11.4v76h-11.4V2.2z
	 M431.3,2.2h35.4v76h-35.4L431.3,2.2L431.3,2.2z M182.8,2.2h246.3v76H182.8L182.8,2.2L182.8,2.2z M77.7,2.2h102.9v76H77.7L77.7,2.2
	L77.7,2.2z M34.9,159.5H2.2V80.4h32.7L34.9,159.5L34.9,159.5z M48.4,159.5H37.1V80.4h11.2L48.4,159.5L48.4,159.5z M666.5,237.8h-543
	v-76.1h543L666.5,237.8L666.5,237.8z M809.6,159.5H50.6V80.4h759.1L809.6,159.5L809.6,159.5z" fill="#FFFFFF"/>
</svg>
