<svg width="1600" height="200" viewBox="0 0 1600 200" fill="currentColor"
    xmlns="http://www.w3.org/2000/svg">
    <path d="M1208.28,71q15.15,15.51,15.15,44.62v83h-13.29V116.72q0-23.94-11.83-36.46T1165.2,67.75q-24.46,0-38.55,15T1112.56,123v75.63h-13.3v-142H1112V87.34a53.49,53.49,0,0,1,21.4-23.4q14.22-8.43,33.64-8.44Q1193.11,55.5,1208.28,71Z"/>
    <path class="cls-1" d="M1277.14,18.91a10.41,10.41,0,0,1-3.19-7.76,10.84,10.84,0,0,1,3.19-7.88A10.37,10.37,0,0,1,1284.85,0a10.64,10.64,0,0,1,7.71,3.13,10.42,10.42,0,0,1,3.19,7.75,10.84,10.84,0,0,1-3.19,7.89,10.39,10.39,0,0,1-7.71,3.27A10.59,10.59,0,0,1,1277.14,18.91Zm1.06,37.68h13.3v142h-13.3Z"/>
    <path class="cls-1" d="M1459,56.59l-62.75,142h-13.56l-62.48-142h14.09l55.3,127.06,55.84-127.06Z"/>
    <path class="cls-1" d="M1042.56,7V200h-35.39V178.83a92.76,92.76,0,0,1-118,0,97.13,97.13,0,0,1-35.39-75.33V7H889.2v95.54c0,33.31,26.41,60.31,59,60.31s59-27,59-60.31V7Z"/>
    <path class="cls-1" d="M399.58,190.45a65.78,65.78,0,0,1-24.84-25.71q-9-16.45-9-37.14t9-37.14a65.92,65.92,0,0,1,24.84-25.71,72.61,72.61,0,0,1,70.93,0,66,66,0,0,1,24.83,25.71q9,16.47,9,37.14t-9,37.14a65.83,65.83,0,0,1-24.83,25.71,72.61,72.61,0,0,1-70.93,0Zm64-10.61a54.15,54.15,0,0,0,19.92-21.22q7.31-13.6,7.31-31t-7.31-31a54.78,54.78,0,0,0-96.95,0q-7.32,13.6-7.31,31t7.31,31a55.83,55.83,0,0,0,77,21.22Z"/>
    <path class="cls-1" d="M614.35,189.64a33.26,33.26,0,0,1-12.62,7.48,48.7,48.7,0,0,1-15.81,2.58q-18.06,0-27.89-10.2t-9.83-28.43V68.29H522.7V56.59h25.5v-31h13.29v31h44.09v11.7H561.49v91.42q0,13.88,6.5,21.08T587.25,188q13,0,21.52-7.89Z"/>
    <path class="cls-1" d="M763.37,130.87H644.1a60.37,60.37,0,0,0,8.24,29.52,53.14,53.14,0,0,0,20.85,20,61.43,61.43,0,0,0,29.62,7.08,62.12,62.12,0,0,0,25.1-5,49,49,0,0,0,19.26-14.82l7.7,9a59.35,59.35,0,0,1-22.71,17.14,73.07,73.07,0,0,1-29.62,6q-20.71,0-36.92-9.25a66.18,66.18,0,0,1-25.37-25.57q-9.16-16.33-9.17-37.28,0-20.67,8.64-37.14a63.67,63.67,0,0,1,57.77-35A63.25,63.25,0,0,1,755,90.06q8.64,16.32,8.64,37ZM671.19,74.14a50.19,50.19,0,0,0-18.72,18.77,62.08,62.08,0,0,0-8.1,27.35H750.62a58,58,0,0,0-8-27.21,52.51,52.51,0,0,0-18.86-18.77,51.27,51.27,0,0,0-26.3-6.81A52.2,52.2,0,0,0,671.19,74.14Z"/>
    <path class="cls-1" d="M329.75,103.5V200H294.36V103.5a62.47,62.47,0,0,0-.8-9.93c-.08-.5-.17-1-.26-1.49a61.83,61.83,0,0,0-2.52-9.32c-.17-.46-.34-.92-.52-1.37h0c-.17-.46-.35-.91-.54-1.37s-.38-.9-.57-1.34a62.39,62.39,0,0,0-4.47-8.3c-.26-.4-.53-.8-.8-1.2q-1.22-1.79-2.55-3.48c-.29-.38-.59-.75-.9-1.12q-1.59-1.94-3.35-3.72t-3.64-3.43l-1.1-.92c-1.1-.91-2.24-1.78-3.4-2.61-.39-.27-.78-.55-1.18-.81a58.62,58.62,0,0,0-8.11-4.57l-1.32-.59L257,47.37h0l-1.35-.52a56.91,56.91,0,0,0-9.11-2.58L245.09,44a58.75,58.75,0,0,0-9.72-.81c-32.57,0-59,27-59,60.31V200H141V7h35.39V28.17a92.76,92.76,0,0,1,118,0A97.14,97.14,0,0,1,329.75,103.5Z"/>
</svg>