<svg width="18" height="20" viewBox="0 0 18 20" fill="currentColor" stroke="currentColor" xmlns="http://www.w3.org/2000/svg">
<path d="M5.5748 4.16574C5.34368 3.76542 4.82888 3.62503 4.45302 3.89412C3.18037 4.80527 2.17713 6.05146 1.55969 7.50131C0.832528 9.20879 0.679815 11.1063 1.12454 12.9081C1.56927 14.7099 2.58737 16.3184 4.02551 17.4914C5.46365 18.6645 7.24398 19.3385 9.09839 19.412C10.9528 19.4855 12.7809 18.9545 14.3074 17.899C15.8339 16.8435 16.9761 15.3207 17.5621 13.5597C18.148 11.7988 18.146 9.89513 17.5563 8.13545C17.0556 6.64127 16.1541 5.31957 14.9576 4.31055C14.6042 4.01255 14.0799 4.11174 13.8178 4.49251C13.5557 4.87328 13.656 5.39087 14.0022 5.69718C14.9033 6.49442 15.5837 7.51739 15.9691 8.66736C16.4435 10.083 16.4451 11.6145 15.9737 13.0312C15.5023 14.4479 14.5834 15.673 13.3553 16.5222C12.1273 17.3713 10.6566 17.7985 9.1647 17.7394C7.67283 17.6802 6.24055 17.138 5.08357 16.1943C3.92658 15.2506 3.10752 13.9565 2.74974 12.507C2.39195 11.0574 2.51481 9.53087 3.09981 8.1572C3.57502 7.04134 4.33427 6.07544 5.2956 5.35204C5.66496 5.07409 5.80593 4.56606 5.5748 4.16574Z"/>
<line x1="9.5813" y1="1.58124" x2="9.5813" y2="8.99999" stroke-width="2" stroke-linecap="round"/>
</svg>
