<svg width="178" height="152" viewBox="0 0 178 152" fill="currentColor"
    xmlns="http://www.w3.org/2000/svg">
    <path d="M89.2992 80.0702C81.4094 80.0702 73.6968 77.7306 67.1367 73.3473C60.5766 68.9639 55.4636 62.7337 52.4443 55.4445C49.425 48.1553 48.6349 40.1344 50.1741 32.3962C51.7133 24.658 55.5126 17.55 61.0915 11.9711C66.6705 6.39216 73.7786 2.59286 81.5168 1.05363C89.255 -0.485591 97.2758 0.304377 104.565 3.32367C111.854 6.34297 118.084 11.456 122.468 18.0161C126.851 24.5762 129.191 32.2888 129.191 40.1786C129.179 50.7549 124.972 60.8947 117.494 68.3733C110.015 75.8519 99.8755 80.0585 89.2992 80.0702V80.0702ZM89.2992 4.02811C82.149 4.02811 75.1594 6.14837 69.2143 10.1208C63.2691 14.0932 58.6353 19.7394 55.899 26.3453C53.1628 32.9513 52.4469 40.2202 53.8418 47.233C55.2367 54.2458 58.68 60.6875 63.7359 65.7435C68.7919 70.7994 75.2335 74.2426 82.2463 75.6375C89.2592 77.0324 96.5281 76.3165 103.134 73.5802C109.74 70.844 115.386 66.2103 119.358 60.2651C123.331 54.3199 125.451 47.3303 125.451 40.1801C125.441 30.595 121.629 21.4053 114.851 14.6275C108.074 7.84962 98.8843 4.03716 89.2992 4.02662V4.02811Z" fill="currentColor"/>
    <path d="M99.5474 99.1438C99.0923 99.1182 98.6585 98.9428 98.3136 98.6448C97.9688 98.3469 97.7322 97.9432 97.6408 97.4967C97.2112 96.1981 96.7831 94.899 96.3565 93.5994C95.8296 91.996 95.3006 90.3927 94.7698 88.7894C93.8791 86.1086 92.9865 83.4288 92.0919 80.75L91.2412 78.199L92.6596 77.7256L93.5105 80.2767C94.4041 82.9564 95.2967 85.6367 96.1884 88.3175C96.7212 89.9208 97.2506 91.5257 97.7765 93.132C98.2032 94.4306 98.6308 95.7287 99.0594 97.0263C99.2968 97.7429 99.5415 97.6736 99.7391 97.6161C100.109 97.5032 100.436 97.2811 100.677 96.9791C102.672 94.1936 104.67 91.3359 106.603 88.5741L108.135 86.3858C108.48 85.7196 109.075 85.2175 109.79 84.9897C110.504 84.7619 111.28 84.827 111.947 85.1708C114.124 85.9002 116.302 86.6242 118.484 87.3428C120.426 87.9857 122.368 88.6301 124.308 89.2759C124.499 89.3487 124.706 89.3626 124.905 89.3158C125.103 89.269 125.283 89.1637 125.42 89.0135C125.522 88.9221 125.616 88.8351 125.42 88.2275C124.098 84.2491 122.778 80.2678 121.459 76.2835C120.556 73.5575 119.652 70.831 118.748 68.1041C118.494 67.3373 118.23 66.5749 117.98 65.8465C117.867 65.5206 117.757 65.2007 117.651 64.891L119.065 64.4059C119.171 64.714 119.28 65.0326 119.394 65.3584C119.646 66.0957 119.913 66.861 120.168 67.6337C121.072 70.3597 121.976 73.0862 122.879 75.8131C124.199 79.7935 125.519 83.7748 126.84 87.7571C127.024 88.1443 127.084 88.5787 127.011 89.001C126.938 89.4234 126.737 89.8129 126.435 90.1165C126.1 90.446 125.679 90.6747 125.221 90.7767C124.762 90.8786 124.284 90.8496 123.841 90.693C121.901 90.0452 119.961 89.4013 118.021 88.7613C115.84 88.0398 113.659 87.3153 111.478 86.5878C110.328 86.2015 110.032 86.2929 109.367 87.2425L107.836 89.4308C105.901 92.1971 103.9 95.0577 101.899 97.8506C101.463 98.4278 100.853 98.8496 100.159 99.0538C99.9607 99.1126 99.7546 99.1429 99.5474 99.1438V99.1438Z" fill="currentColor"/>
    <path d="M78.6689 99.129C78.2501 99.129 77.838 99.0234 77.4708 98.8221C77.1035 98.6209 76.7931 98.3304 76.5677 97.9774C75.8157 96.9049 75.0632 95.8329 74.3101 94.7614C72.6365 92.3785 70.9068 89.9159 69.214 87.4844C68.3292 86.2192 68.2408 86.1897 66.7073 86.7072C63.708 87.7203 60.6483 88.7156 57.6903 89.677L54.4728 90.7255C54.0365 90.8711 53.568 90.8906 53.1211 90.7818C52.6743 90.6731 52.2673 90.4404 51.9468 90.1106C51.6531 89.8015 51.459 89.4113 51.3899 88.9906C51.3207 88.5698 51.3795 88.1381 51.5589 87.7513L52.0337 86.343C53.5953 81.707 55.21 76.9058 56.7863 72.1871C57.3481 70.5061 57.9055 68.7957 58.4452 67.1309C58.7067 66.3277 58.9682 65.5246 59.2296 64.7214C59.2621 64.6211 59.299 64.5223 59.327 64.4486L59.3475 64.3955L60.7528 64.9087L60.7278 64.975C60.7057 65.0325 60.6776 65.1077 60.6526 65.1844C60.3901 65.9866 60.1291 66.7888 59.8695 67.5909C59.3299 69.2528 58.7711 70.9706 58.2078 72.6575C56.6315 77.3762 55.0153 82.1729 53.4538 86.8134L52.9804 88.2202C52.7769 88.8247 52.8801 88.9235 52.9804 89.0179C53.1037 89.1638 53.2686 89.2686 53.453 89.3184C53.6375 89.3682 53.8327 89.3606 54.0127 89.2966L57.2331 88.2482C60.1822 87.2882 63.2419 86.2944 66.2279 85.2843C68.3867 84.5559 69.177 84.8065 70.4378 86.6247C72.1276 89.0533 73.8573 91.5158 75.5295 93.8958C76.2825 94.9683 77.0355 96.0408 77.7885 97.1133C77.8879 97.2912 78.039 97.4348 78.2218 97.5251C78.4045 97.6154 78.6103 97.6482 78.812 97.6191C79.0435 97.594 79.1584 97.5203 79.3693 96.8818C80.5538 93.3025 81.7414 89.7242 82.9318 86.1469C83.6465 83.995 84.3612 81.8431 85.0758 79.6913C85.2926 79.0365 85.5094 78.3818 85.7262 77.7212L87.1477 78.1886C86.9309 78.8493 86.7141 79.5055 86.4959 80.1616C85.7822 82.3145 85.0675 84.4669 84.3519 86.6188C83.1634 90.1961 81.9758 93.7739 80.7893 97.3522C80.7055 97.7972 80.4857 98.2052 80.16 98.5198C79.8343 98.8344 79.4188 99.0401 78.9711 99.1084C78.8708 99.1206 78.7699 99.1275 78.6689 99.129V99.129Z" fill="currentColor"/>
    <path d="M88.1474 40.9263V51.2733H84.2679V40.9263C84.2683 40.5696 84.2391 40.2136 84.1808 39.8617C84.1719 39.8086 84.1627 39.7555 84.1529 39.7024C84.0876 39.3622 83.9949 39.0279 83.8757 38.7026C83.858 38.6525 83.8387 38.6038 83.8195 38.5552C83.7998 38.506 83.7803 38.4569 83.7606 38.4077C83.74 38.3591 83.7192 38.3119 83.6971 38.2603C83.5573 37.953 83.3938 37.6572 83.2077 37.3755C83.1797 37.3328 83.15 37.2885 83.1206 37.2473C83.0321 37.1195 82.9392 36.9951 82.8419 36.8742L82.7431 36.7547C82.6261 36.6161 82.5037 36.4829 82.3759 36.3551C82.2481 36.2273 82.1149 36.1049 81.9763 35.988L81.8569 35.8892C81.736 35.7909 81.6116 35.6979 81.4838 35.6105L81.354 35.5235C81.0723 35.3375 80.7765 35.1739 80.4693 35.0339L80.3219 34.9705L80.1745 34.9115L80.027 34.8555C79.7018 34.7364 79.3673 34.6437 79.0271 34.5783L78.868 34.5502C77.9416 34.3967 76.9928 34.4465 76.0875 34.6962C75.1823 34.946 74.3423 35.3897 73.6257 35.9966C72.9091 36.6035 72.333 37.359 71.9376 38.2108C71.5422 39.0626 71.3369 39.9902 71.3359 40.9293V51.2763H67.4563V30.5792H71.3359V32.8486C72.8577 31.6314 74.6922 30.8687 76.6284 30.6482C78.5647 30.4278 80.5238 30.7587 82.2803 31.6027C84.0368 32.4467 85.5193 33.7696 86.557 35.4191C87.5947 37.0685 88.1455 38.9776 88.146 40.9263H88.1474Z" fill="currentColor"/>
    <path d="M111.403 30.5792V51.2733H107.522V49.004C106 50.2212 104.165 50.9839 102.229 51.2044C100.293 51.4248 98.3338 51.0939 96.5773 50.2499C94.8208 49.4059 93.3385 48.083 92.3008 46.4335C91.2631 44.784 90.7123 42.875 90.7118 40.9263V30.5792H94.5914V40.8231C94.617 42.5212 95.3096 44.1412 96.5195 45.333C97.7295 46.5248 99.3597 47.1929 101.058 47.1929C102.756 47.1929 104.387 46.5248 105.597 45.333C106.807 44.1412 107.499 42.5212 107.525 40.8231V30.5792H111.403Z" fill="currentColor"/>
    <path d="M144.052 134.533C144.768 135.324 145.317 136.25 145.667 137.257C146.017 138.265 146.161 139.332 146.089 140.396V151.308H144.302V140.544C144.425 138.799 143.853 137.077 142.711 135.753C142.123 135.186 141.424 134.746 140.658 134.463C139.892 134.18 139.075 134.059 138.259 134.109C137.306 134.058 136.352 134.206 135.46 134.545C134.567 134.883 133.755 135.404 133.075 136.074C132.425 136.787 131.923 137.622 131.598 138.531C131.272 139.439 131.131 140.403 131.18 141.366V151.305H129.393V132.646H131.109V136.686C131.735 135.394 132.739 134.322 133.987 133.612C135.369 132.846 136.931 132.463 138.51 132.503C139.523 132.448 140.537 132.6 141.489 132.949C142.442 133.298 143.314 133.837 144.052 134.533V134.533Z" fill="currentColor"/>
    <path d="M153.309 127.687C153.169 127.557 153.059 127.399 152.985 127.223C152.911 127.048 152.875 126.858 152.88 126.668C152.88 126.475 152.917 126.285 152.991 126.107C153.065 125.929 153.172 125.767 153.308 125.631C153.445 125.495 153.606 125.387 153.784 125.313C153.962 125.24 154.153 125.202 154.345 125.202C154.536 125.199 154.725 125.234 154.903 125.305C155.08 125.376 155.241 125.48 155.377 125.614C155.517 125.744 155.627 125.902 155.701 126.077C155.775 126.253 155.811 126.442 155.807 126.633C155.807 127.021 155.652 127.394 155.377 127.669C155.103 127.944 154.73 128.098 154.341 128.098C154.15 128.101 153.961 128.067 153.784 127.996C153.606 127.926 153.445 127.82 153.309 127.687V127.687ZM153.456 132.639H155.243V151.304H153.456V132.639Z" fill="currentColor"/>
    <path d="M177.763 132.64L169.326 151.302H167.501L159.105 132.64H161L168.436 149.337L175.943 132.64H177.763Z" fill="currentColor"/>
    <path d="M35.368 149.99C33.9634 149.194 32.8067 148.025 32.0254 146.612C31.2269 145.109 30.8093 143.433 30.8093 141.732C30.8093 140.03 31.2269 138.354 32.0254 136.852C32.8069 135.439 33.9636 134.27 35.368 133.473C36.8324 132.675 38.4736 132.257 40.1413 132.257C41.8089 132.257 43.4501 132.675 44.9145 133.473C46.3189 134.27 47.4755 135.439 48.2571 136.852C49.0556 138.354 49.4732 140.03 49.4732 141.732C49.4732 143.433 49.0556 145.109 48.2571 146.612C47.4758 148.025 46.319 149.194 44.9145 149.99C43.45 150.787 41.8089 151.205 40.1413 151.205C38.4736 151.205 36.8325 150.787 35.368 149.99V149.99ZM43.9854 148.595C45.1169 147.928 46.0443 146.964 46.6663 145.807C47.3122 144.545 47.6487 143.148 47.6487 141.731C47.6487 140.314 47.3122 138.917 46.6663 137.655C46.0441 136.498 45.1168 135.534 43.9854 134.867C42.8108 134.21 41.4876 133.865 40.142 133.865C38.7963 133.865 37.4732 134.21 36.2986 134.867C35.1665 135.534 34.2387 136.498 33.6162 137.655C32.9703 138.917 32.6334 140.314 32.6334 141.731C32.6334 143.148 32.9703 144.545 33.6162 145.807C34.2385 146.964 35.1664 147.928 36.2986 148.595C37.4733 149.251 38.7964 149.596 40.142 149.596C41.4876 149.596 42.8107 149.251 43.9854 148.595V148.595Z" fill="currentColor"/>
    <path d="M64.274 149.882C63.7871 150.331 63.2069 150.667 62.5751 150.866C61.8889 151.093 61.1705 151.208 60.4475 151.205C59.7635 151.249 59.0778 151.152 58.4322 150.922C57.7867 150.691 57.1947 150.332 56.6931 149.865C56.2332 149.362 55.8788 148.773 55.6509 148.131C55.4229 147.49 55.3262 146.809 55.3661 146.129V133.93H51.9378V132.392H55.369V128.327H57.1578V132.403H63.0928V133.941H57.1578V145.954C57.0863 146.955 57.3995 147.946 58.0337 148.725C58.3741 149.057 58.7809 149.313 59.2278 149.477C59.6747 149.64 60.1512 149.706 60.6257 149.671C61.6876 149.711 62.7244 149.341 63.5219 148.639L64.274 149.882Z" fill="currentColor"/>
    <path d="M84.3325 142.16H68.2803C68.3026 143.528 68.6845 144.866 69.3877 146.039C70.0624 147.156 71.032 148.065 72.1896 148.667C73.4205 149.298 74.7877 149.617 76.1709 149.596C77.3306 149.608 78.4806 149.383 79.5506 148.936C80.5634 148.512 81.4546 147.843 82.1429 146.988L83.1751 148.167C82.3528 149.154 81.304 149.927 80.1183 150.42C78.684 151.004 77.1396 151.269 75.5927 151.195C74.0458 151.121 72.5337 150.71 71.1618 149.991C69.7353 149.208 68.5535 148.045 67.7479 146.631C66.9092 145.136 66.4838 143.446 66.5152 141.732C66.4876 140.034 66.8873 138.355 67.6773 136.852C68.412 135.452 69.5193 134.283 70.877 133.473C72.2678 132.68 73.8409 132.261 75.4422 132.258C77.0435 132.254 78.6182 132.667 80.0121 133.456C81.3602 134.256 82.4612 135.413 83.1941 136.798C83.9854 138.297 84.3852 139.97 84.3562 141.664L84.3325 142.16ZM71.9253 134.706C70.8794 135.288 70.0091 136.14 69.4053 137.173C68.7638 138.268 68.3903 139.499 68.3156 140.766H82.6192C82.5692 139.503 82.1999 138.273 81.5457 137.191C80.917 136.146 80.0239 135.285 78.9569 134.695C77.8899 134.106 76.6864 133.807 75.4674 133.83C74.2309 133.811 73.0104 134.113 71.9253 134.706V134.706Z" fill="currentColor"/>
    <path d="M25.9797 138.597V151.23H21.2374V138.597C21.2376 138.162 21.202 137.727 21.1312 137.297C21.1208 137.232 21.1091 137.167 21.0959 137.102C21.0164 136.687 20.9034 136.278 20.7582 135.881C20.7361 135.821 20.7123 135.76 20.6901 135.701C20.6666 135.642 20.6429 135.582 20.6163 135.523C20.5898 135.464 20.5662 135.405 20.5397 135.347C20.3685 134.971 20.1684 134.608 19.941 134.262L19.8351 134.104C19.726 133.948 19.6117 133.796 19.4928 133.649C19.4544 133.6 19.4131 133.551 19.3718 133.501C19.2293 133.332 19.0821 133.17 18.9297 133.013C18.7774 132.857 18.6146 132.709 18.4416 132.571L18.294 132.45C18.1455 132.331 17.9939 132.217 17.8386 132.109L17.682 132.003C17.3359 131.775 16.9728 131.575 16.5955 131.404C16.538 131.378 16.4788 131.351 16.4198 131.328L16.2416 131.255L16.0602 131.188C15.6635 131.042 15.2554 130.929 14.8405 130.85L14.6461 130.814C13.515 130.627 12.3565 130.688 11.2512 130.993C10.146 131.298 9.12012 131.839 8.24522 132.58C7.37033 133.321 6.66718 134.244 6.18457 135.284C5.70196 136.324 5.45154 137.457 5.45052 138.603V151.236H0.712891V125.965H5.45052V128.735C7.30844 127.248 9.54869 126.316 11.9133 126.046C14.2779 125.776 16.6708 126.18 18.816 127.211C20.9612 128.241 22.7714 129.857 24.0385 131.871C25.3057 133.886 25.9779 136.217 25.9779 138.597H25.9797Z" fill="currentColor"/>
    <path d="M121.824 125.965V151.23H117.087V148.459C115.23 149.946 112.989 150.879 110.625 151.149C108.26 151.418 105.868 151.015 103.723 149.985C101.578 148.954 99.7671 147.339 98.4998 145.324C97.2326 143.31 96.56 140.979 96.5598 138.599V125.965H101.296V138.47C101.296 140.564 102.128 142.573 103.609 144.054C105.089 145.534 107.097 146.366 109.192 146.366C111.286 146.366 113.294 145.534 114.775 144.054C116.256 142.573 117.087 140.564 117.087 138.47V125.965H121.824Z" fill="currentColor"/>
</svg>
