<svg width="19" height="19" viewBox="0 0 19 19" fill="none" xmlns="http://www.w3.org/2000/svg">
<path d="M17.1413 2.68481H1.85869C0.896298 2.68481 0.10327 3.42003 0.00827026 4.35763L8.22785 12.5772C8.88873 13.2381 10.0742 13.2752 10.8135 12.5359L18.9918 4.35763C18.8967 3.42003 18.1037 2.68481 17.1413 2.68481Z" fill="white"/>
<path d="M11.6895 13.4118C11.1038 13.9979 10.322 14.3206 9.48872 14.3206C8.68159 14.3206 7.9027 14.0048 7.3517 13.4533L0 6.102V14.4565C0 15.4809 0.834367 16.3152 1.8587 16.3152H17.1413C18.1656 16.3152 19 15.4809 19 14.4565V6.10193L11.6895 13.4118Z" fill="white"/>
</svg>
