<svg width="23" height="23" viewBox="0 0 23 23" fill="none" xmlns="http://www.w3.org/2000/svg">
<path d="M18.1436 9.66391C17.7403 9.66391 17.4125 9.99276 17.4125 10.3975V11.1119H18.8762V10.3975C18.8762 9.99276 18.5468 9.66391 18.1436 9.66391Z" fill="white"/>
<path d="M20.1749 6.18307H2.82508C1.27234 6.18307 0 7.45639 0 9.00914V13.9908C0 15.546 1.27234 16.8169 2.82508 16.8169H20.1749C21.7277 16.8169 23 15.546 23 13.9908V9.00914C23 7.45639 21.7277 6.18307 20.1749 6.18307ZM6.14638 12.2717L6.82415 13.0097L5.65017 13.8905L5.16864 13.0097C5.09768 12.8839 4.9866 12.6373 4.83049 12.2717C4.6597 12.6735 4.54617 12.9182 4.48989 13.0097L4.00151 13.8905L2.79474 13.0097L3.52438 12.2717C3.72991 12.0686 3.92909 11.8944 4.12581 11.7515C3.92517 11.7334 3.6614 11.6962 3.33598 11.6351L2.32545 11.4706L2.79426 10.0945L3.70055 10.5066C3.79598 10.5496 4.03332 10.6852 4.41111 10.9098C4.33036 10.5443 4.27849 10.2727 4.255 10.0945L4.1263 9.10946H5.56551L5.44904 10.0945C5.4236 10.3343 5.36781 10.6059 5.28511 10.9098C5.451 10.8266 5.56062 10.7713 5.61249 10.741C5.79453 10.6397 5.93498 10.5697 6.02943 10.5247L6.93621 10.0945L7.38545 11.4706L6.38274 11.6801C6.19923 11.7153 5.92715 11.7383 5.56551 11.7515C5.81068 11.9434 6.00251 12.1156 6.14638 12.2717ZM12.7904 12.2717L13.4692 13.0097L12.2952 13.89L11.8142 13.0097C11.7432 12.8839 11.6321 12.6373 11.4765 12.2717C11.3052 12.6735 11.1927 12.9182 11.1364 13.0097L10.647 13.89L9.44077 13.0097L10.1704 12.2717C10.3759 12.0686 10.5746 11.8944 10.7718 11.7515C10.5722 11.7334 10.3074 11.6962 9.982 11.6351L8.97098 11.4706L9.44028 10.0945L10.3471 10.5066C10.4415 10.5496 10.6798 10.6852 11.0571 10.9098C10.9744 10.5443 10.9226 10.2727 10.9005 10.0945L10.7713 9.11044H12.211L12.0941 10.0945C12.0677 10.3343 12.0129 10.6059 11.9311 10.9098C12.096 10.8266 12.2057 10.7713 12.258 10.741C12.4391 10.6397 12.58 10.5697 12.675 10.5247L13.5822 10.0945L14.032 11.4706L13.0283 11.6801C12.8448 11.7153 12.5737 11.7383 12.2115 11.7515C12.4547 11.9434 12.6471 12.1156 12.7904 12.2717ZM20.2351 13.5186C20.2351 13.8215 19.987 14.0691 19.6846 14.0691H16.604C16.3011 14.0691 16.0535 13.8215 16.0535 13.5186V11.662C16.0535 11.3591 16.3011 11.1114 16.604 11.1114H16.6784V10.397C16.6784 9.58805 17.3356 8.92986 18.1436 8.92986C18.952 8.92986 19.6097 9.58756 19.6097 10.397V11.1114H19.6841C19.986 11.1114 20.2346 11.3591 20.2346 11.662V13.5186H20.2351Z" fill="white"/>
</svg>
